<svg width="24" height="24" viewBox="0 0 24 24" fill="none" xmlns="http://www.w3.org/2000/svg">
  <g>
    <path
      d="M1.70914 9.42896C1.60434 10.5831 1.53284 11.7553 1.53284 12.9425C1.53284 14.6779 1.68565 16.3815 1.8719 18.0432C2.14848 20.5108 4.15409 22.4699 6.63419 22.5894C8.34839 22.6718 10.0995 22.7148 12 22.7148C13.9006 22.7148 15.6517 22.6718 17.3659 22.5894C19.846 22.4699 21.8515 20.5108 22.1282 18.0432C22.3144 16.3815 22.4673 14.6779 22.4673 12.9425C22.4673 11.7553 22.3958 10.5831 22.2909 9.42896H1.70914Z"
      fill="white" />
    <path
      d="M1.70914 9.42896C1.60434 10.5831 1.53284 11.7553 1.53284 12.9425C1.53284 14.6779 1.68565 16.3815 1.8719 18.0432C2.14848 20.5108 4.15409 22.4699 6.63419 22.5894C8.34839 22.6718 10.0995 22.7148 12 22.7148C13.9006 22.7148 15.6517 22.6718 17.3659 22.5894C19.846 22.4699 21.8515 20.5108 22.1282 18.0432C22.3144 16.3815 22.4673 14.6779 22.4673 12.9425C22.4673 11.7553 22.3958 10.5831 22.2909 9.42896H1.70914Z"
      stroke="#284B7B" stroke-width="1.4" />
    <path
      d="M22.2915 9.42878H1.70972C1.75813 8.89572 1.81364 8.36652 1.87247 7.84152C2.14905 5.374 4.15466 3.41484 6.63476 3.29539C8.34897 3.21283 10.1001 3.16992 12.0006 3.16992C13.9011 3.16992 15.6523 3.21283 17.3665 3.29539C19.8466 3.41484 21.8521 5.374 22.1288 7.84152C22.1876 8.36652 22.2431 8.89572 22.2915 9.42878Z"
      fill="#F4F7FB" />
    <path
      d="M22.2915 9.42878H1.70972C1.75813 8.89572 1.81364 8.36652 1.87247 7.84152C2.14905 5.374 4.15466 3.41484 6.63476 3.29539C8.34897 3.21283 10.1001 3.16992 12.0006 3.16992C13.9011 3.16992 15.6523 3.21283 17.3665 3.29539C19.8466 3.41484 21.8521 5.374 22.1288 7.84152C22.1876 8.36652 22.2431 8.89572 22.2915 9.42878Z"
      stroke="#284B7B" stroke-width="1.4" stroke-linejoin="round" />
    <path d="M8.40002 1.19995L8.40002 4.79995" stroke="#284B7B" stroke-width="1.4"
      stroke-linecap="round" />
    <path d="M15.8391 1.28564V4.88564" stroke="#284B7B" stroke-width="1.4" stroke-linecap="round" />
  </g>
  <defs>
    <clipPath id="clip0_1342_4975">
      <rect width="24" height="24" fill="white" />
    </clipPath>
  </defs>
</svg>