<svg width="163" height="140" viewBox="0 0 163 140" fill="none" xmlns="http://www.w3.org/2000/svg">
<path opacity="0.3" d="M78.4898 138.379C96.7047 138.379 114.173 131.143 127.053 118.261C139.933 105.379 147.169 87.9077 147.169 69.6902C147.169 51.4727 139.933 34.0013 127.053 21.1196C114.173 8.23791 96.7046 1.00103 78.4898 1.00103C60.2749 1.00104 42.8061 8.23791 29.9262 21.1196C17.0464 34.0014 9.81054 51.4727 9.81054 69.6902C9.81054 87.9077 17.0464 105.379 29.9262 118.261C42.8061 131.143 60.2749 138.379 78.4898 138.379Z" fill="#DCDFE5"/>
<path d="M30.3496 124.744C30.3496 125.847 35.3148 126.905 44.1528 127.685C52.9908 128.465 64.9777 128.903 77.4766 128.903C89.9754 128.903 101.962 128.465 110.8 127.685C119.638 126.905 124.604 125.847 124.604 124.744C124.604 123.641 119.638 122.583 110.8 121.803C101.962 121.023 89.9754 120.584 77.4766 120.584C64.9777 120.584 52.9908 121.023 44.1528 121.803C35.3148 122.583 30.3496 123.641 30.3496 124.744Z" fill="#B0B7BF"/>
<path d="M44.2351 106.932C38.8165 106.929 34.4255 102.535 34.4276 97.1164L34.4509 36.9611C34.453 31.5424 38.8474 27.1515 44.266 27.1536L114.961 27.181C120.379 27.1831 124.77 31.5774 124.768 36.9961L124.745 97.1514C124.743 102.57 120.349 106.961 114.93 106.959L44.2351 106.932Z" fill="#E9EDF2" stroke="#67707E" stroke-width="1.96226" stroke-linecap="round" stroke-linejoin="round"/>
<path d="M115.933 27.1812L43.2968 27.151C42.1362 27.1497 40.9867 27.3774 39.9141 27.8208C38.8415 28.2642 37.8668 28.9148 37.0458 29.7353C36.2249 30.5558 35.5736 31.5301 35.1295 32.6026C34.6853 33.675 34.4568 34.8245 34.4572 35.9853L34.451 48.1704L124.762 48.2064L124.766 36.022C124.768 34.8612 124.54 33.7116 124.097 32.6388C123.653 31.5661 123.003 30.5913 122.182 29.7702C121.362 28.9491 120.388 28.2977 119.316 27.8535C118.243 27.4093 117.094 27.1808 115.933 27.1812Z" fill="white" stroke="#67707E" stroke-width="1.96226" stroke-linecap="round" stroke-linejoin="round"/>
<path d="M43.5774 39.1889C43.9952 40.2836 44.8307 41.1674 45.9001 41.6459C46.9695 42.1245 48.1852 42.1585 49.2797 41.7406C50.3742 41.3228 51.2578 40.4871 51.7363 39.4176C52.2148 38.3481 52.2489 37.1322 51.831 36.0376C51.4132 34.9429 50.5777 34.0591 49.5083 33.5806C48.4389 33.102 47.2233 33.068 46.1288 33.4858C45.0343 33.9037 44.1506 34.7394 43.6721 35.8089C43.1936 36.8784 43.1596 38.0943 43.5774 39.1889Z" fill="#DCDFE5" stroke="#67707E" stroke-width="1.96226" stroke-linejoin="round"/>
<path d="M61.2512 39.1945C61.6691 40.2892 62.5046 41.173 63.574 41.6515C64.6433 42.1301 65.859 42.1642 66.9535 41.7463C68.048 41.3284 68.9317 40.4927 69.4101 39.4232C69.8886 38.3537 69.9227 37.1378 69.5048 36.0432C69.087 34.9485 68.2515 34.0647 67.1821 33.5862C66.1127 33.1076 64.8971 33.0736 63.8026 33.4915C62.7081 33.9094 61.8244 34.745 61.3459 35.8145C60.8675 36.8841 60.8334 38.0999 61.2512 39.1945Z" fill="#DCDFE5" stroke="#67707E" stroke-width="1.96226" stroke-linejoin="round"/>
<path d="M78.9251 39.2014C79.3429 40.296 80.1784 41.1798 81.2478 41.6584C82.3172 42.1369 83.5328 42.171 84.6273 41.7531C85.7218 41.3352 86.6055 40.4996 87.084 39.43C87.5624 38.3605 87.5965 37.1447 87.1787 36.05C86.7608 34.9554 85.9253 34.0716 84.8559 33.593C83.7866 33.1145 82.5709 33.0804 81.4764 33.4983C80.3819 33.9162 79.4982 34.7518 79.0198 35.8214C78.5413 36.8909 78.5072 38.1067 78.9251 39.2014Z" fill="#DCDFE5" stroke="#67707E" stroke-width="1.96226" stroke-linejoin="round"/>
<path d="M98.4609 62.2717L108.434 62.2754" stroke="#67707E" stroke-width="1.96226" stroke-linecap="round" stroke-linejoin="round"/>
<path d="M92.5527 68.4387L108.431 68.0946" stroke="#67707E" stroke-width="1.96226" stroke-linecap="round" stroke-linejoin="round"/>
<path d="M127.203 90.5608L131.443 86.3206L142.043 96.9223L137.803 101.163L127.203 90.5608Z" fill="white" stroke="#67707E" stroke-width="1.96226" stroke-linecap="round" stroke-linejoin="round"/>
<path d="M132.502 53.4544C136.276 57.2287 138.846 62.0375 139.887 67.2727C140.928 72.5078 140.394 77.9342 138.352 82.8655C136.309 87.7969 132.851 92.0118 128.413 94.9773C123.976 97.9427 118.759 99.5255 113.422 99.5255C108.085 99.5255 102.868 97.9427 98.4301 94.9773C93.9926 92.0118 90.534 87.7969 88.4916 82.8655C86.4492 77.9342 85.9148 72.5078 86.956 67.2727C87.9971 62.0375 90.567 57.2287 94.3408 53.4544C99.4015 48.3934 106.265 45.5503 113.422 45.5503C120.578 45.5503 127.442 48.3934 132.502 53.4544Z" fill="white" stroke="#67707E" stroke-width="1.96226" stroke-linecap="round" stroke-linejoin="round"/>
<path d="M127.21 58.7544C129.935 61.4803 131.791 64.9532 132.543 68.7339C133.294 72.5147 132.908 76.4335 131.433 79.9948C129.958 83.5561 127.46 86.6001 124.256 88.7416C121.051 90.8832 117.283 92.0263 113.429 92.0263C109.575 92.0263 105.807 90.8832 102.603 88.7416C99.3978 86.6001 96.9 83.5561 95.425 79.9948C93.95 76.4335 93.5639 72.5147 94.3157 68.7339C95.0676 64.9532 96.9234 61.4803 99.6487 58.7544C101.458 56.9444 103.607 55.5085 105.971 54.529C108.336 53.5494 110.87 53.0452 113.429 53.0452C115.988 53.0452 118.523 53.5494 120.887 54.529C123.252 55.5085 125.4 56.9444 127.21 58.7544Z" fill="#E9EDF2"/>
<path d="M124.764 88.3924C121.851 90.4768 118.419 91.7179 114.847 91.9792C111.274 92.2406 107.699 91.5122 104.513 89.874C101.327 88.2358 98.6548 85.7511 96.7888 82.693C94.9228 79.6349 93.9355 76.1215 93.9355 72.5389C93.9355 68.9563 94.9228 65.4429 96.7888 62.3848C98.6548 59.3267 101.327 56.8421 104.513 55.2038C107.699 53.5656 111.274 52.8372 114.847 53.0986C118.419 53.36 121.851 54.601 124.764 56.6854V88.3924Z" stroke="#67707E" stroke-width="1.96226" stroke-linecap="round" stroke-linejoin="round"/>
<path d="M124.764 88.3924C121.851 90.4768 118.419 91.7179 114.847 91.9792C111.274 92.2406 107.699 91.5122 104.513 89.874C101.327 88.2358 98.6548 85.7511 96.7888 82.693C94.9228 79.6349 93.9355 76.1215 93.9355 72.5389C93.9355 68.9563 94.9228 65.4429 96.7888 62.3848C98.6548 59.3267 101.327 56.8421 104.513 55.2038C107.699 53.5656 111.274 52.8372 114.847 53.0986C118.419 53.36 121.851 54.601 124.764 56.6854V88.3924Z" fill="#E9EDF2"/>
<path d="M99.6426 86.3188C95.9878 82.6625 93.9349 77.7039 93.9355 72.5339C93.9362 67.3638 95.9903 62.4057 99.646 58.7504C103.302 55.095 108.26 53.0418 113.429 53.0425C118.598 53.0431 123.556 55.0975 127.21 58.7538L99.6426 86.3188Z" fill="white"/>
<path d="M127.21 58.7544C129.935 61.4803 131.791 64.9532 132.543 68.7339C133.294 72.5147 132.908 76.4335 131.433 79.9948C129.958 83.5561 127.46 86.6001 124.256 88.7416C121.051 90.8832 117.283 92.0263 113.429 92.0263C109.575 92.0263 105.807 90.8832 102.603 88.7416C99.3978 86.6001 96.9 83.5561 95.425 79.9948C93.95 76.4335 93.5639 72.5147 94.3157 68.7339C95.0676 64.9532 96.9234 61.4803 99.6487 58.7544C101.458 56.9444 103.607 55.5085 105.971 54.529C108.336 53.5494 110.87 53.0452 113.429 53.0452C115.988 53.0452 118.523 53.5494 120.887 54.529C123.252 55.5085 125.4 56.9444 127.21 58.7544V58.7544Z" stroke="#67707E" stroke-width="1.96226" stroke-linecap="round" stroke-linejoin="round"/>
<path d="M124.764 88.3924C121.851 90.4768 118.419 91.7179 114.847 91.9792C111.274 92.2406 107.699 91.5122 104.513 89.874C101.327 88.2358 98.6548 85.7511 96.7888 82.693C94.9228 79.6349 93.9355 76.1215 93.9355 72.5389C93.9355 68.9563 94.9228 65.4429 96.7888 62.3848C98.6548 59.3267 101.327 56.8421 104.513 55.2038C107.699 53.5656 111.274 52.8372 114.847 53.0986C118.419 53.36 121.851 54.601 124.764 56.6854V88.3924Z" stroke="#67707E" stroke-width="1.96226" stroke-linecap="round" stroke-linejoin="round"/>
<path d="M160.063 110.704C161.136 111.838 161.724 113.346 161.703 114.907C161.682 116.468 161.053 117.96 159.95 119.064C158.846 120.169 157.356 120.8 155.795 120.822C154.234 120.845 152.726 120.258 151.591 119.186L137.927 105.52C137.633 105.226 137.4 104.877 137.241 104.493C137.082 104.109 137 103.698 137 103.282C137 102.867 137.082 102.455 137.241 102.071C137.4 101.687 137.633 101.338 137.927 101.045L141.933 97.0384C142.227 96.7444 142.575 96.5112 142.959 96.3521C143.343 96.193 143.755 96.1111 144.17 96.1111C144.586 96.1111 144.997 96.193 145.381 96.3521C145.765 96.5112 146.114 96.7444 146.407 97.0384L160.063 110.704Z" fill="#E9EDF2"/>
<path d="M160.063 110.704C161.136 111.838 161.724 113.346 161.703 114.907C161.682 116.468 161.053 117.96 159.95 119.064C158.846 120.169 157.356 120.8 155.795 120.822C154.234 120.845 152.726 120.258 151.591 119.186L137.927 105.52C137.633 105.226 137.4 104.877 137.241 104.493C137.082 104.109 137 103.698 137 103.282C137 102.867 137.082 102.455 137.241 102.071C137.4 101.687 137.633 101.338 137.927 101.045L141.933 97.0384C142.227 96.7444 142.575 96.5112 142.959 96.3521C143.343 96.193 143.755 96.1111 144.17 96.1111C144.586 96.1111 144.997 96.193 145.381 96.3521C145.765 96.5112 146.114 96.7444 146.407 97.0384L160.063 110.704Z" stroke="#67707E" stroke-width="1.96226" stroke-linecap="round" stroke-linejoin="round"/>
</svg>
