<svg width="155" height="44" viewBox="0 0 155 44" fill="none" xmlns="http://www.w3.org/2000/svg">
<g clip-path="url(#clip0_233_12194)">
<path d="M89.39 35.02L85.48 38.61V43.34H83.24V19.95H85.48V35.81L95.38 26.76H98.16L91.06 33.54L98.82 43.35H96.08L89.39 35.02Z" fill="#A1A5AA"/>
<path d="M101.68 21.53C101.68 20.68 102.41 19.95 103.32 19.95C104.23 19.95 104.96 20.64 104.96 21.5C104.96 22.41 104.27 23.14 103.32 23.14C102.37 23.14 101.68 22.41 101.68 21.53ZM102.18 26.77H104.42V43.36H102.18V26.76V26.77Z" fill="#A1A5AA"/>
<path d="M119.41 42.34C118.53 43.13 117.2 43.51 115.91 43.51C112.79 43.51 111.05 41.74 111.05 38.68V28.65H108.09V26.76H111.05V23.13H113.29V26.76H118.34V28.65H113.29V38.55C113.29 40.51 114.3 41.58 116.16 41.58C117.08 41.58 117.99 41.3 118.62 40.73L119.41 42.34Z" fill="#A1A5AA"/>
<path d="M121.8 35.06C121.8 30.14 125.4 26.64 130.25 26.64C135.1 26.64 138.67 30.14 138.67 35.06C138.67 39.98 135.11 43.51 130.25 43.51C125.39 43.51 121.8 39.98 121.8 35.06ZM136.4 35.06C136.4 31.18 133.78 28.59 130.25 28.59C126.72 28.59 124.07 31.18 124.07 35.06C124.07 38.94 126.72 41.53 130.25 41.53C133.78 41.53 136.4 38.94 136.4 35.06Z" fill="#A1A5AA"/>
<path d="M140.94 41.46L141.95 39.69C143.28 40.73 145.51 41.55 147.85 41.55C151 41.55 152.3 40.48 152.3 38.84C152.3 34.52 141.55 37.92 141.55 31.36C141.55 28.65 143.88 26.63 148.11 26.63C150.26 26.63 152.59 27.23 153.98 28.17L153 29.97C151.55 28.96 149.81 28.55 148.11 28.55C145.11 28.55 143.79 29.72 143.79 31.29C143.79 35.77 154.54 32.39 154.54 38.76C154.54 41.63 152.02 43.49 147.7 43.49C144.96 43.49 142.31 42.61 140.95 41.44L140.94 41.46Z" fill="#A1A5AA"/>
<path d="M70.9799 12.94L73.7799 7.00999C70.0699 4.55999 64.9899 2.89999 59.7999 2.89999C51.1299 2.89999 45.2499 7.17999 45.2499 14.03C45.2499 28.24 66.8199 23.27 66.8199 32.17C66.8199 35.25 64.0299 37.02 59.3499 37.02C55.0699 37.02 49.9399 34.97 45.8299 31.2L42.9199 37.02C47.0299 40.78 52.9599 43.35 59.2399 43.35C68.0299 43.35 74.3099 38.96 74.3099 31.83C74.3599 17.45 52.7999 22.13 52.7999 13.4C52.7999 10.72 55.3699 9.22999 59.2999 9.22999C62.3299 9.22999 66.6599 10.31 70.9999 12.94" fill="#111E32"/>
<path d="M42.34 23.16C42.34 14.98 37.58 8.18999 30.5 4.98999L27.85 10.67C32.35 13 35.44 17.65 35.44 23.16C35.44 31.09 29.05 37.37 21.23 37.37C13.41 37.37 6.85 31.09 6.85 23.16C6.85 17.67 9.97 13.03 14.5 10.69L11.84 4.98999C4.76 8.16999 0 14.94 0 23.16C0 34.57 9.24 43.41 21.17 43.41C33.1 43.41 42.34 34.57 42.34 23.16Z" fill="#111E32"/>
<path d="M24.2201 0.25H18.0701V17.05H24.2201V0.25Z" fill="#111E32"/>
<path d="M86.2401 9.24999L81.3701 14.24V17H93.0901V13.67H86.5301L89.5301 10.55C90.7001 9.32999 91.5101 8.32999 91.9401 7.53999C92.3801 6.74999 92.5901 5.92999 92.5901 5.07999C92.5901 3.50999 92.0501 2.26999 90.9601 1.35999C89.8701 0.44999 88.6101 -0.0100098 87.1801 -0.0100098C85.7501 -0.0100098 84.5601 0.29999 83.6401 0.91999C82.7101 1.53999 81.8601 2.44999 81.0801 3.65999L84.0501 5.41999C84.9901 3.92999 85.9801 3.17999 87.0201 3.17999C87.5901 3.17999 88.0601 3.36999 88.4201 3.73999C88.7901 4.10999 88.9701 4.57999 88.9701 5.12999C88.9701 5.67999 88.7601 6.25999 88.3401 6.84999C87.9201 7.44999 87.2201 8.23999 86.2301 9.23999" fill="#111E32"/>
</g>
<defs>
<clipPath id="clip0_233_12194">
<rect width="154.54" height="43.51" fill="white"/>
</clipPath>
</defs>
</svg>
