<svg width="32" height="32" viewBox="0 0 32 32" fill="none" xmlns="http://www.w3.org/2000/svg">
<path d="M13.3545 26.916C13.8602 27.8588 14.8552 28.5002 16 28.5002C17.1448 28.5002 18.1398 27.8588 18.6455 26.916" stroke="#284B7B" stroke-width="1.5" stroke-linecap="round" stroke-linejoin="round"/>
<path d="M10.5248 5.76792C11.9769 4.3158 13.9464 3.5 16 3.5C18.0536 3.5 20.0231 4.3158 21.4753 5.76792C22.9274 7.22004 23.7432 9.18954 23.7432 11.2432C23.7432 12.4515 23.9426 13.5869 24.2426 14.7482C24.3266 15.0111 24.4192 15.2592 24.5188 15.4932C24.9828 16.5848 26.2604 16.9572 27.2138 17.663C28.6368 18.7164 28.3616 20.9705 27.178 21.8456C27.178 21.8456 25.267 23.5 16 23.5C6.73296 23.5 4.822 21.8456 4.822 21.8456C3.63844 20.9705 3.36333 18.7164 4.78628 17.663C5.73958 16.9572 7.01718 16.5849 7.48132 15.4933C7.94396 14.4053 8.25688 13.0135 8.25688 11.2432C8.25688 9.18954 9.07268 7.22004 10.5248 5.76792Z" fill="#E8EEF7"/>
<path d="M10.5248 5.76792C11.9769 4.3158 13.9464 3.5 16 3.5C18.0536 3.5 20.0231 4.3158 21.4753 5.76792C22.9274 7.22004 23.7432 9.18954 23.7432 11.2432C23.7432 12.4515 23.9426 13.5869 24.2426 14.7482C24.3266 15.0111 24.4192 15.2592 24.5188 15.4932C24.9828 16.5848 26.2604 16.9572 27.2138 17.663C28.6368 18.7164 28.3616 20.9705 27.178 21.8456C27.178 21.8456 25.267 23.5 16 23.5C6.73296 23.5 4.822 21.8456 4.822 21.8456C3.63844 20.9705 3.36333 18.7164 4.78628 17.663C5.73958 16.9572 7.01718 16.5849 7.48132 15.4933C7.94396 14.4053 8.25688 13.0135 8.25688 11.2432C8.25688 9.18954 9.07268 7.22004 10.5248 5.76792Z" stroke="#284B7B" stroke-width="1.5" stroke-linecap="round" stroke-linejoin="round"/>
</svg>
