<svg width="156" height="140" viewBox="0 0 156 140" fill="none" xmlns="http://www.w3.org/2000/svg">
<path opacity="0.3" d="M78.4905 138.379C96.7054 138.379 114.174 131.142 127.054 118.261C139.934 105.379 147.17 87.9076 147.17 69.6901C147.17 51.4726 139.934 34.0012 127.054 21.1195C114.174 8.23779 96.7054 1.00091 78.4905 1.00091C60.2756 1.00091 42.8068 8.23779 29.927 21.1195C17.0471 34.0012 9.81128 51.4726 9.81128 69.6901C9.81128 87.9076 17.0471 105.379 29.927 118.261C42.8068 131.142 60.2757 138.379 78.4905 138.379Z" fill="#DCDFE5"/>
<path d="M30.3499 124.744C30.3499 125.847 35.315 126.905 44.153 127.685C52.991 128.465 64.978 128.903 77.4768 128.903C89.9757 128.903 101.963 128.465 110.801 127.685C119.639 126.905 124.604 125.847 124.604 124.744C124.604 123.641 119.639 122.583 110.801 121.803C101.963 121.023 89.9757 120.584 77.4768 120.584C64.978 120.584 52.991 121.023 44.153 121.803C35.315 122.583 30.3499 123.641 30.3499 124.744Z" fill="#B0B7BF"/>
<path d="M44.2344 106.931C38.8158 106.929 34.4248 102.535 34.4269 97.1163L34.4502 36.961C34.4523 31.5424 38.8467 27.1514 44.2653 27.1535L114.96 27.1809C120.379 27.183 124.77 31.5774 124.768 36.996L124.744 97.1513C124.742 102.57 120.348 106.961 114.929 106.959L44.2344 106.931Z" fill="#E9EDF2" stroke="#67707E" stroke-width="1.96226" stroke-linecap="round" stroke-linejoin="round"/>
<path d="M115.933 27.1811L43.2963 27.1509C42.1357 27.1497 40.9862 27.3773 39.9136 27.8208C38.841 28.2642 37.8664 28.9148 37.0454 29.7353C36.2244 30.5558 35.5732 31.5301 35.129 32.6025C34.6848 33.6749 34.4564 34.8244 34.4567 35.9852L34.4505 48.1703L124.762 48.2063L124.766 36.022C124.767 34.8612 124.54 33.7116 124.096 32.6388C123.653 31.566 123.002 30.5912 122.182 29.7701C121.362 28.949 120.387 28.2977 119.315 27.8535C118.243 27.4092 117.093 27.1807 115.933 27.1811Z" fill="white" stroke="#67707E" stroke-width="1.96226" stroke-linecap="round" stroke-linejoin="round"/>
<path d="M43.5764 39.1889C43.9943 40.2836 44.8298 41.1674 45.8992 41.6459C46.9685 42.1245 48.1842 42.1586 49.2787 41.7407C50.3732 41.3228 51.2569 40.4871 51.7353 39.4176C52.2138 38.3481 52.2479 37.1322 51.83 36.0376C51.4122 34.9429 50.5767 34.0591 49.5073 33.5806C48.4379 33.102 47.2223 33.068 46.1278 33.4859C45.0333 33.9037 44.1496 34.7394 43.6711 35.8089C43.1927 36.8784 43.1586 38.0943 43.5764 39.1889Z" fill="#DCDFE5" stroke="#67707E" stroke-width="1.96226" stroke-linejoin="round"/>
<path d="M61.251 39.1947C61.6688 40.2893 62.5043 41.1732 63.5737 41.6517C64.6431 42.1302 65.8587 42.1643 66.9532 41.7464C68.0477 41.3285 68.9314 40.4929 69.4099 39.4234C69.8884 38.3538 69.9224 37.138 69.5046 36.0433C69.0868 34.9487 68.2513 34.0649 67.1819 33.5863C66.1125 33.1078 64.8968 33.0737 63.8023 33.4916C62.7079 33.9095 61.8242 34.7451 61.3457 35.8147C60.8672 36.8842 60.8331 38.1 61.251 39.1947Z" fill="#DCDFE5" stroke="#67707E" stroke-width="1.96226" stroke-linejoin="round"/>
<path d="M78.9236 39.2013C79.3414 40.296 80.1769 41.1798 81.2463 41.6583C82.3157 42.1369 83.5313 42.171 84.6258 41.7531C85.7203 41.3352 86.604 40.4995 87.0825 39.43C87.561 38.3605 87.595 37.1446 87.1772 36.05C86.7594 34.9553 85.9239 34.0715 84.8545 33.593C83.7851 33.1144 82.5694 33.0804 81.4749 33.4983C80.3805 33.9161 79.4968 34.7518 79.0183 35.8213C78.5398 36.8908 78.5058 38.1067 78.9236 39.2013Z" fill="#DCDFE5" stroke="#67707E" stroke-width="1.96226" stroke-linejoin="round"/>
<path d="M89.1523 93.0553C89.1523 98.5379 91.33 103.796 95.2062 107.673C99.0825 111.55 104.34 113.728 109.822 113.728C115.304 113.728 120.561 111.55 124.437 107.673C128.313 103.796 130.491 98.5379 130.491 93.0553C130.491 87.5726 128.313 82.3145 124.437 78.4377C120.561 74.5609 115.304 72.3829 109.822 72.3829C104.34 72.3829 99.0825 74.5609 95.2062 78.4377C91.33 82.3145 89.1523 87.5726 89.1523 93.0553Z" fill="#DCDFE5" stroke="#67707E" stroke-width="1.96226" stroke-linecap="round" stroke-linejoin="round"/>
<path d="M93.6462 93.0553C93.6462 95.1798 94.0646 97.2835 94.8775 99.2463C95.6904 101.209 96.8819 102.992 98.3839 104.495C99.8859 105.997 101.669 107.189 103.632 108.002C105.594 108.815 107.697 109.233 109.822 109.233C111.946 109.233 114.049 108.815 116.012 108.002C117.974 107.189 119.757 105.997 121.259 104.495C122.761 102.992 123.953 101.209 124.766 99.2463C125.579 97.2835 125.997 95.1798 125.997 93.0553C125.997 90.9308 125.579 88.8271 124.766 86.8643C123.953 84.9015 122.761 83.1181 121.259 81.6159C119.757 80.1136 117.974 78.922 116.012 78.109C114.049 77.296 111.946 76.8775 109.822 76.8775C107.697 76.8775 105.594 77.296 103.632 78.109C101.669 78.922 99.8859 80.1136 98.3839 81.6159C96.8819 83.1181 95.6904 84.9015 94.8775 86.8643C94.0646 88.8271 93.6462 90.9308 93.6462 93.0553Z" fill="white"/>
<path d="M93.6462 93.0418C93.6462 95.166 94.0646 97.2694 94.8775 99.2319C95.6904 101.194 96.8819 102.978 98.3839 104.48C99.8859 105.982 101.669 107.173 103.632 107.986C105.594 108.799 107.697 109.217 109.822 109.217C111.946 109.217 114.049 108.799 116.012 107.986C117.974 107.173 119.757 105.982 121.259 104.48C122.761 102.978 123.953 101.194 124.766 99.2319C125.579 97.2694 125.997 95.166 125.997 93.0418C125.997 90.9176 125.579 88.8142 124.766 86.8517C123.953 84.8892 122.761 83.1061 121.259 81.604C119.757 80.102 117.974 78.9105 116.012 78.0976C114.049 77.2848 111.946 76.8664 109.822 76.8664C107.697 76.8664 105.594 77.2848 103.632 78.0976C101.669 78.9105 99.8859 80.102 98.3839 81.604C96.8819 83.1061 95.6904 84.8892 94.8775 86.8517C94.0646 88.8142 93.6462 90.9176 93.6462 93.0418V93.0418Z" stroke="#67707E" stroke-width="1.96226" stroke-linecap="round" stroke-linejoin="round"/>
<path d="M112.326 99.8189V95.1049H117.042C117.659 95.0923 118.247 94.8383 118.678 94.3976C119.11 93.9568 119.352 93.3644 119.352 92.7474C119.352 92.1304 119.11 91.5379 118.678 91.0972C118.247 90.6564 117.659 90.4025 117.042 90.3899H112.326V85.6719C112.314 85.0551 112.06 84.4677 111.619 84.0359C111.178 83.6041 110.586 83.3622 109.969 83.3622C109.352 83.3622 108.759 83.6041 108.319 84.0359C107.878 84.4677 107.624 85.0551 107.611 85.6719V90.3879H102.895C102.582 90.3815 102.27 90.4377 101.978 90.5533C101.687 90.6689 101.421 90.8415 101.197 91.0611C100.973 91.2806 100.795 91.5427 100.673 91.8319C100.552 92.1211 100.489 92.4317 100.489 92.7454C100.489 93.0591 100.552 93.3697 100.673 93.6589C100.795 93.9481 100.973 94.2102 101.197 94.4297C101.421 94.6493 101.687 94.8219 101.978 94.9375C102.27 95.0531 102.582 95.1093 102.895 95.1029H107.611V99.8189C107.605 100.133 107.661 100.444 107.777 100.736C107.892 101.028 108.065 101.293 108.285 101.517C108.504 101.741 108.766 101.919 109.055 102.041C109.345 102.163 109.655 102.225 109.969 102.225C110.283 102.225 110.593 102.163 110.882 102.041C111.172 101.919 111.434 101.741 111.653 101.517C111.873 101.293 112.045 101.028 112.161 100.736C112.277 100.444 112.333 100.133 112.326 99.8189Z" fill="#DCDFE5" stroke="#67707E" stroke-width="1.96226" stroke-linejoin="round"/>
</svg>
