<svg width="24" height="24" viewBox="0 0 24 24" fill="none" xmlns="http://www.w3.org/2000/svg">
<path d="M3.07755 20.4806C3.20439 21.2381 3.84495 21.7944 4.61007 21.8613C6.87643 22.0594 9.24845 22.326 11.6909 22.326C14.1557 22.326 16.5311 22.1582 18.8258 21.9036C19.5657 21.8217 20.1634 21.2618 20.2834 20.527C20.567 18.7913 20.7569 16.9929 20.7569 15.1331C20.7569 13.2667 20.5848 11.4411 20.2913 9.70869C20.1693 8.98839 19.5806 8.44353 18.8547 8.36071C16.5427 8.09688 14.1681 7.9404 11.6909 7.9404C9.2111 7.9404 6.79359 8.0874 4.50158 8.35719C3.78811 8.44116 3.20918 8.97478 3.08585 9.68251C2.78323 11.4192 2.625 13.2585 2.625 15.1331C2.625 16.9769 2.78901 18.7577 3.07755 20.4806Z" fill="#E8EEF7" stroke="#284B7B" stroke-width="1.5"/>
<path d="M9.21838 13.9039H14.1634" stroke="#284B7B" stroke-width="1.5" stroke-linecap="round" stroke-linejoin="round"/>
<path d="M1.6693 7.9404C1.89268 8.54882 2.51093 8.89481 3.15897 8.8837C8.94569 8.7846 14.8106 8.886 20.8259 8.9022C21.4818 8.90397 22.0963 8.53562 22.3204 7.91914C22.5618 7.25482 22.7143 6.57105 22.7143 5.86814C22.7143 5.1319 22.5637 4.40952 22.3007 3.71628C22.0867 3.15256 21.5294 2.8129 20.9272 2.78496C18.0494 2.65145 15.0924 2.57143 12.0001 2.57143C8.90251 2.57143 5.88722 2.64669 3.04238 2.78412C2.45661 2.81242 1.91152 3.13582 1.69962 3.68266C1.42731 4.38535 1.28577 5.12061 1.28577 5.86814C1.28577 6.57885 1.42286 7.26912 1.6693 7.9404Z" fill="white" stroke="#284B7B" stroke-width="1.5"/>
</svg>
