<svg width="24" height="24" viewBox="0 0 24 24" fill="none" xmlns="http://www.w3.org/2000/svg">
<path d="M21.2122 19.0008C21.354 16.7411 21.4286 14.3995 21.4286 12C21.4286 11.0282 21.4164 10.0659 21.3924 9.11465C21.3756 8.44641 21.1587 7.79698 20.7632 7.25812C19.2555 5.2042 18.0545 3.92729 16.075 2.39961C15.5311 1.97978 14.8635 1.752 14.1766 1.73698C13.4877 1.72193 12.7684 1.71429 12 1.71429C9.67378 1.71429 7.79733 1.78435 5.85547 1.91786C4.20351 2.03145 2.89152 3.34653 2.78779 4.99913C2.64597 7.25885 2.57141 9.60053 2.57141 12C2.57141 14.3995 2.64597 16.7411 2.78779 19.0008C2.89152 20.6535 4.20351 21.9686 5.85547 22.0821C7.79733 22.2156 9.67378 22.2857 12 22.2857C14.3262 22.2857 16.2026 22.2156 18.1445 22.0821C19.7964 21.9686 21.1085 20.6535 21.2122 19.0008Z" fill="#E8EEF7" stroke="#284B7B" stroke-width="1.5"/>
<path d="M6.85718 1.85448V11.645C6.85718 12.4086 7.78044 12.791 8.32041 12.2511L10.2857 10.2857L12.2511 12.2511C12.7911 12.791 13.7143 12.4086 13.7143 11.645V1.72807C13.1668 1.71892 12.5983 1.71429 12 1.71429C10.0751 1.71429 8.4581 1.76227 6.85718 1.85448Z" fill="white" stroke="#284B7B" stroke-width="1.5" stroke-linejoin="round"/>
</svg>
