<svg width="20" height="20" viewBox="0 0 20 20" fill="none" xmlns="http://www.w3.org/2000/svg">
<g clip-path="url(#clip0_3685_59392)">
<path d="M18.4768 16.4063C18.5726 14.8805 18.6229 13.2994 18.6229 11.6793C18.6229 11.2577 18.6196 10.8388 18.6128 10.4228C18.5982 9.52018 18.3112 8.63806 17.7573 7.92531C16.919 6.84663 16.1581 6.08454 15.0082 5.19709C14.6409 4.91364 14.1902 4.75984 13.7264 4.7497C13.2613 4.73954 12.7756 4.73438 12.2568 4.73438C10.6861 4.73438 9.41914 4.78169 8.10802 4.87183C6.99261 4.94852 6.10676 5.83646 6.03672 6.9523C5.94096 8.47806 5.89062 10.0592 5.89062 11.6793C5.89062 13.2994 5.94096 14.8805 6.03672 16.4063C6.10676 17.5221 6.99261 18.41 8.10802 18.4867C9.41914 18.5768 10.6861 18.6242 12.2568 18.6242C13.8274 18.6242 15.0944 18.5768 16.4055 18.4867C17.521 18.41 18.4067 17.5221 18.4768 16.4063Z" fill="#E8EEF7"/>
<path d="M18.4768 16.4063C18.5726 14.8805 18.6229 13.2994 18.6229 11.6793C18.6229 11.2577 18.6196 10.8388 18.6128 10.4228C18.5982 9.52018 18.3112 8.63806 17.7573 7.92531C16.919 6.84663 16.1581 6.08454 15.0082 5.19709C14.6409 4.91364 14.1902 4.75984 13.7264 4.7497C13.2613 4.73954 12.7756 4.73438 12.2568 4.73438C10.6861 4.73438 9.41914 4.78169 8.10802 4.87183C6.99261 4.94852 6.10676 5.83646 6.03672 6.9523C5.94096 8.47806 5.89062 10.0592 5.89062 11.6793C5.89062 13.2994 5.94096 14.8805 6.03672 16.4063C6.10676 17.5221 6.99261 18.41 8.10802 18.4867C9.41914 18.5768 10.6861 18.6242 12.2568 18.6242C13.8274 18.6242 15.0944 18.5768 16.4055 18.4867C17.521 18.41 18.4067 17.5221 18.4768 16.4063Z" stroke="#284B7B" stroke-width="1.5" stroke-linecap="round" stroke-linejoin="round"/>
<path d="M11.2105 2.41886C10.9871 2.22812 10.7496 2.03605 10.4926 1.83772C10.1253 1.55426 9.67462 1.40046 9.2108 1.39033C8.74569 1.38016 8.26 1.375 7.74116 1.375C6.17051 1.375 4.90353 1.42231 3.59239 1.51246C2.477 1.58914 1.59114 2.47708 1.5211 3.59292C1.42534 5.11869 1.375 6.69978 1.375 8.31989C1.375 9.94001 1.42534 11.5211 1.5211 13.0469C1.59114 14.1627 2.477 15.0506 3.59239 15.1273" stroke="#284B7B" stroke-width="1.5" stroke-linecap="round" stroke-linejoin="round"/>
<path d="M12.2578 9.02539V14.3325" stroke="#284B7B" stroke-width="1.5" stroke-linecap="round" stroke-linejoin="round"/>
<path d="M9.60352 11.6797H14.9107" stroke="#284B7B" stroke-width="1.5" stroke-linecap="round" stroke-linejoin="round"/>
</g>
<defs>
<clipPath id="clip0_3685_59392">
<rect width="20" height="20" fill="white"/>
</clipPath>
</defs>
</svg>
