<svg width="20" height="20" viewBox="0 0 20 20" fill="none" xmlns="http://www.w3.org/2000/svg">
<g clip-path="url(#clip0_4180_163143)">
<path d="M1.42475 7.85938C1.33742 8.82113 1.27783 9.798 1.27783 10.7873C1.27783 12.2335 1.40517 13.6532 1.56038 15.0379C1.79087 17.0942 3.46221 18.7268 5.52896 18.8264C6.95746 18.8951 8.41673 18.9309 10.0005 18.9309C11.5843 18.9309 13.0435 18.8951 14.4721 18.8264C16.5388 18.7268 18.2101 17.0942 18.4406 15.0379C18.5958 13.6532 18.7232 12.2335 18.7232 10.7873C18.7232 9.798 18.6636 8.82113 18.5762 7.85938H1.42475Z" fill="white"/>
<path d="M1.42475 7.85938C1.33742 8.82113 1.27783 9.798 1.27783 10.7873C1.27783 12.2335 1.40517 13.6532 1.56038 15.0379C1.79087 17.0942 3.46221 18.7268 5.52896 18.8264C6.95746 18.8951 8.41673 18.9309 10.0005 18.9309C11.5843 18.9309 13.0435 18.8951 14.4721 18.8264C16.5388 18.7268 18.2101 17.0942 18.4406 15.0379C18.5958 13.6532 18.7232 12.2335 18.7232 10.7873C18.7232 9.798 18.6636 8.82113 18.5762 7.85938H1.42475Z" stroke="#284B7B" stroke-width="1.16667"/>
<path d="M18.5763 7.86025H1.4248C1.46515 7.41603 1.5114 6.97503 1.56043 6.53753C1.79092 4.48126 3.46226 2.84863 5.529 2.74909C6.95752 2.68029 8.41678 2.64453 10.0005 2.64453C11.5843 2.64453 13.0436 2.68029 14.4721 2.74909C16.5388 2.84863 18.2101 4.48126 18.4407 6.53753C18.4897 6.97503 18.536 7.41603 18.5763 7.86025Z" fill="#E8EEF7"/>
<path d="M18.5763 7.86025H1.4248C1.46515 7.41603 1.5114 6.97503 1.56043 6.53753C1.79092 4.48126 3.46226 2.84863 5.529 2.74909C6.95752 2.68029 8.41678 2.64453 10.0005 2.64453C11.5843 2.64453 13.0436 2.68029 14.4721 2.74909C16.5388 2.84863 18.2101 4.48126 18.4407 6.53753C18.4897 6.97503 18.536 7.41603 18.5763 7.86025Z" stroke="#284B7B" stroke-width="1.16667" stroke-linejoin="round"/>
<path d="M7.00049 1.00391L7.00049 4.00391" stroke="#284B7B" stroke-width="1.16667" stroke-linecap="round"/>
<path d="M13.1992 1.07422V4.07422" stroke="#284B7B" stroke-width="1.16667" stroke-linecap="round"/>
</g>
<defs>
<clipPath id="clip0_4180_163143">
<rect width="20" height="20" fill="white"/>
</clipPath>
</defs>
</svg>
