<svg width="24" height="24" viewBox="0 0 24 24" fill="none" xmlns="http://www.w3.org/2000/svg">
<path d="M3.85383 20.6343C3.91195 21.4598 4.56115 22.1201 5.3857 22.1892C9.92468 22.5698 14.0752 22.5698 18.6142 22.1892C19.4387 22.1201 20.0879 21.4598 20.1461 20.6343C20.4989 15.623 20.4989 10.8883 20.1461 5.87688C20.0879 5.05147 19.4389 4.39317 18.6176 4.29226C16.4965 4.03168 14.2802 3.69643 11.9999 3.69643C9.71969 3.69643 7.50341 4.03168 5.38224 4.29226C4.56096 4.39317 3.91193 5.05147 3.85383 5.87688C3.50103 10.8883 3.50103 15.6229 3.85383 20.6343Z" fill="white" stroke="#284B7B" stroke-width="1.5"/>
<path d="M8.73218 11.1696H15.2679" stroke="#284B7B" stroke-width="1.5" stroke-linecap="round"/>
<path d="M8.73218 16.1518H12.6761" stroke="#284B7B" stroke-width="1.5" stroke-linecap="round"/>
<path d="M14.304 1.28571H9.69598C8.29097 1.28571 7.15198 2.4247 7.15198 3.82971V3.83143C7.15198 5.23644 8.29097 6.37543 9.69598 6.37543H14.304C15.709 6.37543 16.848 5.23644 16.848 3.83143V3.82971C16.848 2.4247 15.709 1.28571 14.304 1.28571Z" fill="#E8EEF7" stroke="#284B7B" stroke-width="1.5" stroke-linejoin="round"/>
</svg>
