<svg width="20" height="21" viewBox="0 0 20 21" fill="none" xmlns="http://www.w3.org/2000/svg">
<g clip-path="url(#clip0_4020_17734)">
<path d="M6.875 1.125V6.125C6.875 6.45652 7.0067 6.77446 7.24112 7.00888C7.47554 7.2433 7.79348 7.375 8.125 7.375H14.375C14.7065 7.375 15.0245 7.2433 15.2589 7.00888C15.4933 6.77446 15.625 6.45652 15.625 6.125V1.125" fill="#E8EEF7"/>
<path d="M6.875 1.125V6.125C6.875 6.45652 7.0067 6.77446 7.24112 7.00888C7.47554 7.2433 7.79348 7.375 8.125 7.375H14.375C14.7065 7.375 15.0245 7.2433 15.2589 7.00888C15.4933 6.77446 15.625 6.45652 15.625 6.125V1.125" stroke="#284B7B" stroke-width="1.5" stroke-linecap="round" stroke-linejoin="round"/>
<path d="M18.125 19.875H1.875C1.54348 19.875 1.22554 19.7433 0.991117 19.5089C0.756696 19.2745 0.625 18.9565 0.625 18.625V6.53583C0.625142 5.87285 0.888627 5.23707 1.3575 4.76833L4.2675 1.8575C4.49969 1.62524 4.77537 1.441 5.07879 1.31532C5.38221 1.18963 5.70741 1.12496 6.03583 1.125H18.125C18.4565 1.125 18.7745 1.2567 19.0089 1.49112C19.2433 1.72554 19.375 2.04348 19.375 2.375V18.625C19.375 18.9565 19.2433 19.2745 19.0089 19.5089C18.7745 19.7433 18.4565 19.875 18.125 19.875Z" stroke="#284B7B" stroke-width="1.5" stroke-linecap="round" stroke-linejoin="round"/>
<path d="M13.125 3.625V4.875" stroke="#284B7B" stroke-width="1.5" stroke-linecap="round" stroke-linejoin="round"/>
<path d="M14.375 11.125H5.625C5.29348 11.125 4.97554 11.2567 4.74112 11.4911C4.5067 11.7255 4.375 12.0435 4.375 12.375V19.875H15.625V12.375C15.625 12.0435 15.4933 11.7255 15.2589 11.4911C15.0245 11.2567 14.7065 11.125 14.375 11.125Z" fill="#E8EEF7" stroke="#284B7B" stroke-width="1.5" stroke-linecap="round" stroke-linejoin="round"/>
</g>
<defs>
<clipPath id="clip0_4020_17734">
<rect width="20" height="20" fill="white" transform="translate(0 0.5)"/>
</clipPath>
</defs>
</svg>
