<svg width="24" height="24" viewBox="0 0 24 24" fill="none" xmlns="http://www.w3.org/2000/svg">
<path d="M21.1907 19.2056C21.3327 16.9458 21.4073 14.6041 21.4073 12.2046C21.4073 11.5803 21.4021 10.9598 21.3922 10.3437C21.3706 9.00696 20.9456 7.70048 20.1251 6.64488C18.8835 5.0473 17.7567 3.9186 16.0537 2.60426C15.5098 2.18444 14.8422 1.95666 14.1552 1.94164C13.4664 1.92659 12.747 1.91895 11.9786 1.91895C9.65244 1.91895 7.77598 1.98901 5.83412 2.12252C4.18217 2.2361 2.87016 3.55119 2.76644 5.2038C2.6246 7.46352 2.55005 9.80518 2.55005 12.2046C2.55005 14.6041 2.6246 16.9458 2.76644 19.2056C2.87016 20.8581 4.18217 22.1732 5.83412 22.2868C7.77598 22.4204 9.65244 22.4903 11.9786 22.4903C14.3048 22.4903 16.1813 22.4204 18.1232 22.2868C19.7751 22.1732 21.087 20.8581 21.1907 19.2056Z" fill="#E8EEF7" stroke="#284B7B" stroke-width="1.5"/>
<path d="M21.4001 13.5228C21.4051 13.0858 21.4077 12.6466 21.4077 12.2055C21.4077 11.5812 21.4025 10.9607 21.3926 10.3446C21.371 9.00781 20.946 7.70135 20.1256 6.64573C18.8839 5.04815 17.7571 3.91945 16.0541 2.60512C15.5102 2.1853 14.8426 1.95752 14.1556 1.9425C14.0399 1.93998 13.9234 1.93766 13.8059 1.93555V6.99541C13.8059 7.94217 14.5723 8.67213 15.5188 8.69948C17.8687 8.76736 21.3117 9.39371 21.4001 13.5228Z" fill="white"/>
<path d="M13.8059 1.5V6.99496C13.8059 7.94173 14.5723 8.67169 15.5188 8.69903C17.8994 8.76781 21.4018 9.40972 21.4018 13.6859" stroke="#284B7B" stroke-width="1.5" stroke-linejoin="round"/>
<path d="M2.56136 13.8198C2.55385 13.2846 2.55005 12.7461 2.55005 12.2047C2.55005 9.80518 2.6246 7.46351 2.76644 5.20379C2.87016 3.55119 4.18217 2.2361 5.83412 2.12252C7.77598 1.98901 9.65244 1.91895 11.9786 1.91895C12.747 1.91895 13.4664 1.92659 14.1552 1.94164C14.8422 1.95666 15.5098 2.18444 16.0537 2.60426C17.7567 3.91859 18.8835 5.0473 20.1251 6.64487C20.9456 7.70048 21.3706 9.00695 21.3922 10.3437C21.4021 10.9598 21.4073 11.5803 21.4073 12.2047C21.4073 14.6041 21.3327 16.9458 21.1907 19.2054C21.087 20.8582 19.7751 22.1732 18.1232 22.2869C16.6928 22.3851 15.2978 22.449 13.7324 22.476" stroke="#284B7B" stroke-width="1.5" stroke-linecap="round"/>
</svg>
