<svg width="24" height="24" viewBox="0 0 24 24" fill="none" xmlns="http://www.w3.org/2000/svg">
<path d="M15.5 13C16.0523 13 16.5 12.5523 16.5 12C16.5 11.4477 16.0523 11 15.5 11C14.9477 11 14.5 11.4477 14.5 12C14.5 12.5523 14.9477 13 15.5 13Z" fill="#A0A7B1"/>
<path d="M8.5 13C9.05228 13 9.5 12.5523 9.5 12C9.5 11.4477 9.05228 11 8.5 11C7.94772 11 7.5 11.4477 7.5 12C7.5 12.5523 7.94772 13 8.5 13Z" fill="#A0A7B1"/>
<path d="M15.5 7C16.0523 7 16.5 6.55228 16.5 6C16.5 5.44772 16.0523 5 15.5 5C14.9477 5 14.5 5.44772 14.5 6C14.5 6.55228 14.9477 7 15.5 7Z" fill="#A0A7B1"/>
<path d="M8.5 7C9.05228 7 9.5 6.55228 9.5 6C9.5 5.44772 9.05228 5 8.5 5C7.94772 5 7.5 5.44772 7.5 6C7.5 6.55228 7.94772 7 8.5 7Z" fill="#A0A7B1"/>
<path d="M15.5 19C16.0523 19 16.5 18.5523 16.5 18C16.5 17.4477 16.0523 17 15.5 17C14.9477 17 14.5 17.4477 14.5 18C14.5 18.5523 14.9477 19 15.5 19Z" fill="#A0A7B1"/>
<path d="M8.5 19C9.05228 19 9.5 18.5523 9.5 18C9.5 17.4477 9.05228 17 8.5 17C7.94772 17 7.5 17.4477 7.5 18C7.5 18.5523 7.94772 19 8.5 19Z" fill="#A0A7B1"/>
<path d="M15.5 13C16.0523 13 16.5 12.5523 16.5 12C16.5 11.4477 16.0523 11 15.5 11C14.9477 11 14.5 11.4477 14.5 12C14.5 12.5523 14.9477 13 15.5 13Z" stroke="#A0A7B1" stroke-width="2" stroke-linecap="round" stroke-linejoin="round"/>
<path d="M8.5 13C9.05228 13 9.5 12.5523 9.5 12C9.5 11.4477 9.05228 11 8.5 11C7.94772 11 7.5 11.4477 7.5 12C7.5 12.5523 7.94772 13 8.5 13Z" stroke="#A0A7B1" stroke-width="2" stroke-linecap="round" stroke-linejoin="round"/>
<path d="M15.5 7C16.0523 7 16.5 6.55228 16.5 6C16.5 5.44772 16.0523 5 15.5 5C14.9477 5 14.5 5.44772 14.5 6C14.5 6.55228 14.9477 7 15.5 7Z" stroke="#A0A7B1" stroke-width="2" stroke-linecap="round" stroke-linejoin="round"/>
<path d="M8.5 7C9.05228 7 9.5 6.55228 9.5 6C9.5 5.44772 9.05228 5 8.5 5C7.94772 5 7.5 5.44772 7.5 6C7.5 6.55228 7.94772 7 8.5 7Z" stroke="#A0A7B1" stroke-width="2" stroke-linecap="round" stroke-linejoin="round"/>
<path d="M15.5 19C16.0523 19 16.5 18.5523 16.5 18C16.5 17.4477 16.0523 17 15.5 17C14.9477 17 14.5 17.4477 14.5 18C14.5 18.5523 14.9477 19 15.5 19Z" stroke="#A0A7B1" stroke-width="2" stroke-linecap="round" stroke-linejoin="round"/>
<path d="M8.5 19C9.05228 19 9.5 18.5523 9.5 18C9.5 17.4477 9.05228 17 8.5 17C7.94772 17 7.5 17.4477 7.5 18C7.5 18.5523 7.94772 19 8.5 19Z" stroke="#A0A7B1" stroke-width="2" stroke-linecap="round" stroke-linejoin="round"/>
</svg>
