<svg width="140" height="140" viewBox="0 0 140 140" fill="none" xmlns="http://www.w3.org/2000/svg">
<g clip-path="url(#clip0_2619_13938)">
<path opacity="0.3" d="M0 70C0 88.5652 7.37498 106.37 20.5025 119.497C33.6301 132.625 51.4348 140 70 140C88.5652 140 106.37 132.625 119.497 119.497C132.625 106.37 140 88.5652 140 70C140 51.4348 132.625 33.6301 119.497 20.5025C106.37 7.37498 88.5652 0 70 0C51.4348 0 33.6301 7.37498 20.5025 20.5025C7.37498 33.6301 0 51.4348 0 70Z" fill="#D3D8DE"/>
<path d="M38.2849 32.9057H96.2778C97.1335 32.9057 97.9808 33.0495 98.7714 33.329C99.5619 33.6085 100.28 34.0181 100.885 34.5345C101.49 35.0509 101.97 35.664 102.298 36.3387C102.625 37.0134 102.794 37.7365 102.794 38.4668V106.312H44.8009C43.0727 106.312 41.4154 105.726 40.1934 104.684C38.9714 103.641 38.2849 102.226 38.2849 100.751V32.9057Z" fill="#E9EDF2"/>
<path d="M102.794 106.312H44.8009C43.0727 106.312 41.4154 105.726 40.1934 104.684C38.9714 103.641 38.2849 102.226 38.2849 100.751V32.9057H96.2778C97.1335 32.9057 97.9808 33.0495 98.7714 33.329C99.5619 33.6085 100.28 34.0181 100.885 34.5345C101.49 35.0509 101.97 35.664 102.298 36.3387C102.625 37.0134 102.794 37.7365 102.794 38.4668V106.312Z" stroke="#67707E" stroke-width="1.96" stroke-linecap="round" stroke-linejoin="round"/>
<path d="M43.4751 49.2183H56.8218V96.6731H43.4751V49.2183Z" fill="white" stroke="#67707E" stroke-width="1.96" stroke-linecap="round" stroke-linejoin="round"/>
<path d="M62.0122 49.2183H99.0863V63.3064H62.0122V49.2183Z" fill="white" stroke="#67707E" stroke-width="1.96" stroke-linecap="round" stroke-linejoin="round"/>
<path d="M66.4612 54.4087H94.6375" stroke="#67707E" stroke-width="1.96" stroke-linecap="round" stroke-linejoin="round"/>
<path d="M66.4612 58.8575H85.7397" stroke="#67707E" stroke-width="1.96" stroke-linecap="round" stroke-linejoin="round"/>
<path d="M62.0122 67.7553H99.0863V85.5509H62.0122V67.7553Z" fill="white" stroke="#67707E" stroke-width="1.96" stroke-linecap="round" stroke-linejoin="round"/>
<path d="M66.4612 72.2042H76.8419" stroke="#67707E" stroke-width="1.96" stroke-linecap="round" stroke-linejoin="round"/>
<path d="M66.4612 76.6531H76.8419" stroke="#67707E" stroke-width="1.96" stroke-linecap="round" stroke-linejoin="round"/>
<path d="M66.4612 81.102H76.8419" stroke="#67707E" stroke-width="1.96" stroke-linecap="round" stroke-linejoin="round"/>
<path d="M84.2568 72.2042H94.6376" stroke="#67707E" stroke-width="1.96" stroke-linecap="round" stroke-linejoin="round"/>
<path d="M84.2568 76.6531H94.6376" stroke="#67707E" stroke-width="1.96" stroke-linecap="round" stroke-linejoin="round"/>
<path d="M84.2568 81.102H94.6376" stroke="#67707E" stroke-width="1.96" stroke-linecap="round" stroke-linejoin="round"/>
<path d="M84.2568 98.8976H94.6376" stroke="#67707E" stroke-width="1.96" stroke-linecap="round" stroke-linejoin="round"/>
<path d="M84.2568 103.346H94.6376" stroke="#67707E" stroke-width="1.96" stroke-linecap="round" stroke-linejoin="round"/>
<path d="M74.5696 34.6343C74.8 34.4348 74.9848 34.188 75.1114 33.9108C75.238 33.6336 75.3036 33.3324 75.3036 33.0277C75.3036 32.7229 75.238 32.4217 75.1114 32.1445C74.9848 31.8673 74.8 31.6206 74.5696 31.4211L61.585 20.1798C61.277 19.9137 60.899 19.7416 60.496 19.6839C60.0931 19.6263 59.682 19.6857 59.3118 19.8549C58.9415 20.0241 58.6276 20.2961 58.4075 20.6385C58.1873 20.9809 58.0701 21.3794 58.0698 21.7864V25.38C52.8473 25.38 47.6759 26.4087 42.8509 28.4074C38.0259 30.406 33.6418 33.3354 29.949 37.0284C26.2561 40.7214 23.3269 45.1056 21.3284 49.9307C19.33 54.7557 18.3015 59.9272 18.3018 65.1498V66.6796L21.188 61.7697C24.9665 55.3465 30.357 50.0214 36.8258 46.3216C43.2947 42.6218 50.6176 40.6755 58.0698 40.6753V44.2689C58.0694 44.6763 58.1862 45.0752 58.4062 45.418C58.6263 45.7609 58.9403 46.0332 59.3108 46.2026C59.6813 46.3719 60.0927 46.4311 60.4959 46.3731C60.8992 46.3151 61.2772 46.1424 61.585 45.8755L74.5696 34.6343Z" fill="#6A92C8"/>
<path d="M74.9407 34.9312C75.1711 34.7316 75.3559 34.4849 75.4825 34.2077C75.6091 33.9305 75.6747 33.6293 75.6747 33.3245C75.6747 33.0198 75.6091 32.7186 75.4825 32.4414C75.3559 32.1642 75.1711 31.9175 74.9407 31.7179L61.9561 20.4767C61.6481 20.2105 61.2701 20.0384 60.8671 19.9808C60.4641 19.9232 60.0531 19.9826 59.6828 20.1518C59.3126 20.321 58.9987 20.593 58.7786 20.9354C58.5584 21.2778 58.4412 21.6762 58.4409 22.0833V25.6769C53.2184 25.6769 48.0469 26.7056 43.222 28.7042C38.397 30.7029 34.0129 33.6323 30.3201 37.3253C26.6272 41.0183 23.698 45.4025 21.6995 50.2275C19.7011 55.0526 18.6726 60.2241 18.6729 65.4466V66.9765L21.5591 62.0666C25.3376 55.6434 30.7281 50.3183 37.1969 46.6185C43.6658 42.9186 50.9887 40.9723 58.4409 40.9722V44.5658C58.4405 44.9732 58.5573 45.3721 58.7773 45.7149C58.9974 46.0578 59.3114 46.3301 59.6819 46.4995C60.0524 46.6688 60.4638 46.728 60.867 46.67C61.2703 46.612 61.6483 46.4393 61.9561 46.1724L74.9407 34.9312Z" fill="#D3D8DE" stroke="#67707E" stroke-width="1.96" stroke-linecap="round" stroke-linejoin="round"/>
<path d="M65.3969 105.77C65.1666 105.97 64.9819 106.216 64.8552 106.493C64.7286 106.77 64.6631 107.071 64.6631 107.376C64.6631 107.681 64.7286 107.982 64.8552 108.259C64.9819 108.536 65.1666 108.782 65.3969 108.982L78.3816 120.225C78.6896 120.491 79.0675 120.663 79.4705 120.72C79.8735 120.778 80.2846 120.719 80.6548 120.55C81.025 120.38 81.3389 120.108 81.5591 119.766C81.7792 119.424 81.8964 119.025 81.8967 118.618V115.024C87.1193 115.024 92.2907 113.996 97.1157 111.997C101.941 109.998 106.325 107.069 110.018 103.376C113.71 99.683 116.64 95.2988 118.638 90.4738C120.637 85.6487 121.665 80.4772 121.665 75.2547V73.7248L118.779 78.6347C115 85.0579 109.61 90.383 103.141 94.0828C96.6718 97.7827 89.3489 99.729 81.8967 99.7291V96.1355C81.8971 95.7281 81.7804 95.3292 81.5603 94.9864C81.3403 94.6435 81.0263 94.3712 80.6558 94.2019C80.2853 94.0325 79.8739 93.9733 79.4706 94.0313C79.0674 94.0893 78.6893 94.262 78.3816 94.5289L65.3969 105.77Z" fill="#90AED5"/>
<path d="M65.3969 105.029C65.1666 105.228 64.9819 105.475 64.8552 105.752C64.7286 106.029 64.6631 106.33 64.6631 106.634C64.6631 106.939 64.7286 107.24 64.8552 107.517C64.9819 107.794 65.1666 108.041 65.3969 108.24L78.3816 119.483C78.6896 119.749 79.0675 119.921 79.4705 119.979C79.8735 120.037 80.2846 119.977 80.6548 119.808C81.025 119.639 81.3389 119.367 81.5591 119.024C81.7792 118.682 81.8964 118.284 81.8967 117.877V114.283C87.1193 114.283 92.2907 113.254 97.1157 111.256C101.941 109.257 106.325 106.328 110.018 102.635C113.71 98.9416 116.64 94.5574 118.638 89.7323C120.637 84.9072 121.665 79.7357 121.665 74.5132V72.9833L118.779 77.8932C115 84.3164 109.61 89.6415 103.141 93.3413C96.6718 97.0412 89.3489 98.9875 81.8967 98.9876V95.394C81.8971 94.9867 81.7804 94.5878 81.5603 94.2449C81.3403 93.9021 81.0263 93.6297 80.6558 93.4604C80.2853 93.291 79.8739 93.2318 79.4706 93.2898C79.0674 93.3478 78.6893 93.5205 78.3816 93.7874L65.3969 105.029Z" fill="#D3D8DE" stroke="#67707E" stroke-width="1.96" stroke-linecap="round" stroke-linejoin="round"/>
</g>
<defs>
<clipPath id="clip0_2619_13938">
<rect width="140" height="140" fill="white"/>
</clipPath>
</defs>
</svg>
