<svg width="163" height="140" viewBox="0 0 163 140" fill="none" xmlns="http://www.w3.org/2000/svg">
<path opacity="0.3" d="M78.4905 138.379C96.7054 138.379 114.174 131.142 127.054 118.261C139.934 105.379 147.17 87.9076 147.17 69.6901C147.17 51.4726 139.934 34.0012 127.054 21.1195C114.174 8.23779 96.7054 1.00091 78.4905 1.00091C60.2756 1.00091 42.8068 8.23779 29.927 21.1195C17.0471 34.0012 9.81128 51.4726 9.81128 69.6901C9.81128 87.9076 17.0471 105.379 29.927 118.261C42.8068 131.142 60.2757 138.379 78.4905 138.379Z" fill="#DCDFE5"/>
<path d="M30.3499 124.744C30.3499 125.847 35.315 126.905 44.153 127.685C52.991 128.465 64.978 128.903 77.4768 128.903C89.9757 128.903 101.963 128.465 110.801 127.685C119.639 126.905 124.604 125.847 124.604 124.744C124.604 123.641 119.639 122.583 110.801 121.803C101.963 121.023 89.9757 120.584 77.4768 120.584C64.978 120.584 52.991 121.023 44.153 121.803C35.315 122.583 30.3499 123.641 30.3499 124.744Z" fill="#B0B7BF"/>
<path d="M44.2344 106.931C38.8158 106.929 34.4248 102.535 34.4269 97.1163L34.4502 36.961C34.4523 31.5424 38.8467 27.1514 44.2653 27.1535L114.96 27.1809C120.379 27.183 124.77 31.5774 124.768 36.996L124.744 97.1513C124.742 102.57 120.348 106.961 114.929 106.959L44.2344 106.931Z" fill="#E9EDF2" stroke="#67707E" stroke-width="1.96226" stroke-linecap="round" stroke-linejoin="round"/>
<path d="M115.933 27.1811L43.2963 27.151C42.1357 27.1497 40.9862 27.3773 39.9136 27.8208C38.841 28.2642 37.8664 28.9148 37.0454 29.7353C36.2244 30.5558 35.5732 31.5301 35.129 32.6025C34.6848 33.675 34.4564 34.8244 34.4567 35.9852L34.4505 48.1703L124.762 48.2063L124.766 36.022C124.767 34.8612 124.54 33.7116 124.096 32.6388C123.653 31.5661 123.002 30.5912 122.182 29.7701C121.362 28.949 120.387 28.2977 119.315 27.8535C118.243 27.4092 117.093 27.1808 115.933 27.1811Z" fill="white" stroke="#67707E" stroke-width="1.96226" stroke-linecap="round" stroke-linejoin="round"/>
<path d="M43.5764 39.1889C43.9943 40.2836 44.8298 41.1674 45.8992 41.6459C46.9685 42.1245 48.1842 42.1586 49.2787 41.7407C50.3732 41.3228 51.2569 40.4871 51.7353 39.4176C52.2138 38.3481 52.2479 37.1322 51.83 36.0376C51.4122 34.9429 50.5767 34.0591 49.5073 33.5806C48.4379 33.102 47.2223 33.068 46.1278 33.4859C45.0333 33.9037 44.1496 34.7394 43.6711 35.8089C43.1927 36.8784 43.1586 38.0943 43.5764 39.1889Z" fill="#DCDFE5" stroke="#67707E" stroke-width="1.96226" stroke-linejoin="round"/>
<path d="M61.251 39.1947C61.6688 40.2893 62.5043 41.1732 63.5737 41.6517C64.6431 42.1302 65.8587 42.1643 66.9532 41.7464C68.0477 41.3285 68.9314 40.4929 69.4099 39.4234C69.8884 38.3538 69.9224 37.138 69.5046 36.0433C69.0868 34.9487 68.2513 34.0649 67.1819 33.5863C66.1125 33.1078 64.8968 33.0737 63.8023 33.4916C62.7079 33.9095 61.8242 34.7451 61.3457 35.8147C60.8672 36.8842 60.8331 38.1 61.251 39.1947Z" fill="#DCDFE5" stroke="#67707E" stroke-width="1.96226" stroke-linejoin="round"/>
<path d="M78.9236 39.2013C79.3414 40.296 80.1769 41.1798 81.2463 41.6583C82.3157 42.1369 83.5313 42.171 84.6258 41.7531C85.7203 41.3352 86.604 40.4995 87.0825 39.43C87.561 38.3605 87.595 37.1446 87.1772 36.05C86.7594 34.9553 85.9239 34.0715 84.8545 33.593C83.7851 33.1144 82.5694 33.0804 81.4749 33.4983C80.3805 33.9162 79.4968 34.7518 79.0183 35.8213C78.5398 36.8909 78.5058 38.1067 78.9236 39.2013Z" fill="#DCDFE5" stroke="#67707E" stroke-width="1.96226" stroke-linejoin="round"/>
<path d="M98.4602 62.2718L108.433 62.2755" stroke="#67707E" stroke-width="1.96226" stroke-linecap="round" stroke-linejoin="round"/>
<path d="M92.5525 68.4388L108.431 68.0946" stroke="#67707E" stroke-width="1.96226" stroke-linecap="round" stroke-linejoin="round"/>
<path d="M127.203 90.5608L131.443 86.3206L142.043 96.9223L137.804 101.163L127.203 90.5608Z" fill="white" stroke="#67707E" stroke-width="1.96226" stroke-linecap="round" stroke-linejoin="round"/>
<path d="M132.503 53.4544C136.276 57.2287 138.846 62.0375 139.887 67.2726C140.929 72.5078 140.394 77.9341 138.352 82.8655C136.309 87.7969 132.851 92.0118 128.413 94.9773C123.976 97.9427 118.759 99.5255 113.422 99.5255C108.085 99.5255 102.868 97.9427 98.4303 94.9773C93.9928 92.0118 90.5342 87.7969 88.4918 82.8655C86.4495 77.9341 85.9151 72.5078 86.9562 67.2726C87.9974 62.0375 90.5673 57.2287 94.341 53.4544C99.4018 48.3934 106.265 45.5503 113.422 45.5503C120.578 45.5503 127.442 48.3934 132.503 53.4544Z" fill="white" stroke="#67707E" stroke-width="1.96226" stroke-linecap="round" stroke-linejoin="round"/>
<path d="M127.209 58.7545C129.935 61.4804 131.791 64.9533 132.542 68.734C133.294 72.5148 132.908 76.4336 131.433 79.9949C129.958 83.5562 127.46 86.6002 124.256 88.7417C121.051 90.8833 117.283 92.0264 113.429 92.0264C109.575 92.0264 105.807 90.8833 102.602 88.7417C99.3976 86.6002 96.8998 83.5562 95.4247 79.9949C93.9497 76.4336 93.5637 72.5148 94.3155 68.734C95.0673 64.9533 96.9232 61.4804 99.6484 58.7545C101.458 56.9445 103.606 55.5086 105.971 54.5291C108.335 53.5495 110.87 53.0453 113.429 53.0453C115.988 53.0453 118.522 53.5495 120.887 54.5291C123.251 55.5086 125.4 56.9445 127.209 58.7545Z" fill="#E9EDF2"/>
<path d="M124.764 88.3924C121.851 90.4768 118.419 91.7179 114.847 91.9793C111.274 92.2406 107.699 91.5122 104.513 89.874C101.327 88.2358 98.6548 85.7512 96.7888 82.693C94.9228 79.6349 93.9355 76.1216 93.9355 72.5389C93.9355 68.9563 94.9228 65.443 96.7888 62.3849C98.6548 59.3267 101.327 56.8421 104.513 55.2039C107.699 53.5657 111.274 52.8372 114.847 53.0986C118.419 53.36 121.851 54.6011 124.764 56.6855V88.3924Z" stroke="#67707E" stroke-width="1.96226" stroke-linecap="round" stroke-linejoin="round"/>
<path d="M124.764 88.3924C121.851 90.4768 118.419 91.7179 114.847 91.9793C111.274 92.2406 107.699 91.5122 104.513 89.874C101.327 88.2358 98.6548 85.7512 96.7888 82.693C94.9228 79.6349 93.9355 76.1216 93.9355 72.5389C93.9355 68.9563 94.9228 65.443 96.7888 62.3849C98.6548 59.3267 101.327 56.8421 104.513 55.2039C107.699 53.5657 111.274 52.8372 114.847 53.0986C118.419 53.36 121.851 54.6011 124.764 56.6855V88.3924Z" fill="#E9EDF2"/>
<path d="M99.6426 86.3188C95.9878 82.6625 93.9349 77.7039 93.9355 72.5339C93.9362 67.3638 95.9903 62.4057 99.646 58.7504C103.302 55.095 108.26 53.0418 113.429 53.0425C118.598 53.0431 123.556 55.0975 127.21 58.7538L99.6426 86.3188Z" fill="white"/>
<path d="M127.209 58.7545C129.935 61.4804 131.791 64.9533 132.542 68.734C133.294 72.5148 132.908 76.4336 131.433 79.9949C129.958 83.5562 127.46 86.6002 124.256 88.7417C121.051 90.8833 117.283 92.0264 113.429 92.0264C109.575 92.0264 105.807 90.8833 102.602 88.7417C99.3976 86.6002 96.8998 83.5562 95.4247 79.9949C93.9497 76.4336 93.5637 72.5148 94.3155 68.734C95.0673 64.9533 96.9232 61.4804 99.6484 58.7545C101.458 56.9445 103.606 55.5086 105.971 54.5291C108.335 53.5495 110.87 53.0453 113.429 53.0453C115.988 53.0453 118.522 53.5495 120.887 54.5291C123.251 55.5086 125.4 56.9445 127.209 58.7545V58.7545Z" stroke="#67707E" stroke-width="1.96226" stroke-linecap="round" stroke-linejoin="round"/>
<path d="M124.764 88.3924C121.851 90.4768 118.419 91.7179 114.847 91.9793C111.274 92.2406 107.699 91.5122 104.513 89.874C101.327 88.2358 98.6548 85.7512 96.7888 82.693C94.9228 79.6349 93.9355 76.1216 93.9355 72.5389C93.9355 68.9563 94.9228 65.443 96.7888 62.3849C98.6548 59.3267 101.327 56.8421 104.513 55.2039C107.699 53.5657 111.274 52.8372 114.847 53.0986C118.419 53.36 121.851 54.6011 124.764 56.6855V88.3924Z" stroke="#67707E" stroke-width="1.96226" stroke-linecap="round" stroke-linejoin="round"/>
<path d="M160.063 110.704C161.136 111.838 161.725 113.346 161.704 114.907C161.683 116.468 161.054 117.96 159.95 119.064C158.847 120.169 157.356 120.8 155.795 120.822C154.235 120.845 152.726 120.258 151.591 119.185L137.928 105.52C137.634 105.226 137.401 104.877 137.241 104.493C137.082 104.109 137 103.698 137 103.282C137 102.867 137.082 102.455 137.241 102.071C137.401 101.687 137.634 101.338 137.928 101.045L141.933 97.0384C142.227 96.7444 142.576 96.5112 142.96 96.352C143.344 96.1929 143.755 96.111 144.171 96.111C144.586 96.111 144.998 96.1929 145.382 96.352C145.765 96.5112 146.114 96.7444 146.408 97.0384L160.063 110.704Z" fill="#E9EDF2"/>
<path d="M160.063 110.704C161.136 111.838 161.725 113.346 161.704 114.907C161.683 116.468 161.054 117.96 159.95 119.064C158.847 120.169 157.356 120.8 155.795 120.822C154.235 120.845 152.726 120.258 151.591 119.185L137.928 105.52C137.634 105.226 137.401 104.877 137.241 104.493C137.082 104.109 137 103.698 137 103.282C137 102.867 137.082 102.455 137.241 102.071C137.401 101.687 137.634 101.338 137.928 101.045L141.933 97.0384C142.227 96.7444 142.576 96.5112 142.96 96.352C143.344 96.1929 143.755 96.111 144.171 96.111C144.586 96.111 144.998 96.1929 145.382 96.352C145.765 96.5112 146.114 96.7444 146.408 97.0384L160.063 110.704Z" stroke="#67707E" stroke-width="1.96226" stroke-linecap="round" stroke-linejoin="round"/>
</svg>
