<svg width="24" height="24" viewBox="0 0 24 24" fill="none" xmlns="http://www.w3.org/2000/svg">
<g clip-path="url(#clip0_3197_24389)">
<path d="M11.9993 22.3482C17.715 22.3482 22.3482 17.715 22.3482 11.9993C22.3482 6.28377 17.715 1.65039 11.9993 1.65039C6.28377 1.65039 1.65039 6.28377 1.65039 11.9993C1.65039 17.715 6.28377 22.3482 11.9993 22.3482Z" fill="#F4F7FB"/>
<path d="M11.9993 22.3482C17.715 22.3482 22.3482 17.715 22.3482 11.9993C22.3482 6.28377 17.715 1.65039 11.9993 1.65039C6.28377 1.65039 1.65039 6.28377 1.65039 11.9993C1.65039 17.715 6.28377 22.3482 11.9993 22.3482Z" stroke="#284B7B" stroke-width="1.5" stroke-linecap="round" stroke-linejoin="round"/>
<path d="M12 7.22266V16.7755" stroke="#284B7B" stroke-width="1.5" stroke-linecap="round" stroke-linejoin="round"/>
<path d="M7.22266 12H16.7755" stroke="#284B7B" stroke-width="1.5" stroke-linecap="round" stroke-linejoin="round"/>
</g>
<defs>
<clipPath id="clip0_3197_24389">
<rect width="24" height="24" fill="white"/>
</clipPath>
</defs>
</svg>
