<svg width="24" height="24" viewBox="0 0 24 24" fill="none" xmlns="http://www.w3.org/2000/svg">
<path d="M12 15.4286C13.8935 15.4286 15.4286 13.8935 15.4286 12C15.4286 10.1064 13.8935 8.57143 12 8.57143C10.1064 8.57143 8.57141 10.1064 8.57141 12C8.57141 13.8935 10.1064 15.4286 12 15.4286Z" fill="white"/>
<path fill-rule="evenodd" clip-rule="evenodd" d="M11.9994 20.1431C17.9168 20.1431 22.7137 13.8005 22.7137 12.0003C22.7137 10.2001 17.9168 3.85742 11.9994 3.85742C6.0821 3.85742 1.28516 10.2001 1.28516 12.0003C1.28516 13.8005 6.0821 20.1431 11.9994 20.1431ZM15.428 12.0003C15.428 13.8938 13.893 15.4289 11.9994 15.4289C10.1059 15.4289 8.57087 13.8938 8.57087 12.0003C8.57087 10.1067 10.1059 8.57171 11.9994 8.57171C13.893 8.57171 15.428 10.1067 15.428 12.0003Z" fill="#E8EEF7"/>
<path d="M22.7137 12.0003C22.7137 13.8005 17.9168 20.1431 11.9994 20.1431C6.0821 20.1431 1.28516 13.8005 1.28516 12.0003C1.28516 10.2001 6.0821 3.85742 11.9994 3.85742C17.9168 3.85742 22.7137 10.2001 22.7137 12.0003Z" stroke="#39414B" stroke-width="1.5" stroke-linejoin="round"/>
<path d="M12 15.4286C13.8935 15.4286 15.4286 13.8935 15.4286 12C15.4286 10.1064 13.8935 8.57143 12 8.57143C10.1064 8.57143 8.57141 10.1064 8.57141 12C8.57141 13.8935 10.1064 15.4286 12 15.4286Z" stroke="#39414B" stroke-width="1.5" stroke-linecap="round" stroke-linejoin="round"/>
</svg>
