<svg width="24" height="24" viewBox="0 0 24 24" fill="none" xmlns="http://www.w3.org/2000/svg">
<path d="M10.8924 3.02649C10.6554 2.38635 10.0612 1.94631 9.37927 1.91529C6.91637 1.80319 5.43044 1.83322 3.4543 1.97235C2.62867 2.03049 1.9722 2.68123 1.87773 3.50349C1.29937 8.5373 1.1075 13.5886 1.70997 18.6339C1.91441 20.346 3.3163 21.5904 4.99342 21.773C9.7291 22.2886 14.3967 22.2754 19.1321 21.7599C20.7776 21.5808 22.0988 20.2776 22.2951 18.6339C22.6675 15.5157 22.7666 12.3194 22.5348 8.39858C22.4388 6.77424 21.1651 5.46708 19.5434 5.33283C17.2385 5.14202 15.6366 5.13108 12.8039 5.07115C12.1019 5.05629 11.4799 4.61285 11.2361 3.95443L10.8924 3.02649Z" fill="#E8EEF7"/>
<path d="M6.17949 21.8913C9.78451 21.8554 5.38915 21.8162 4.9933 21.773C3.31618 21.5904 1.91429 20.346 1.70985 18.6339C1.10737 13.5886 1.29925 8.5373 1.87761 3.50349C1.97208 2.68121 2.62855 2.03047 3.45418 1.97234C5.43033 1.83322 6.91625 1.80319 9.37915 1.91527C10.061 1.9463 10.6552 2.38635 10.8923 3.02647L11.2359 3.95441C11.4798 4.61283 12.1018 5.05629 12.8038 5.07113C15.6365 5.13106 17.2385 5.142 19.5433 5.33282C21.1649 5.46706 22.4386 6.77407 22.5348 8.39841C22.5924 9.37296 22.6296 10.3028 22.6471 11.1977" stroke="#284B7B" stroke-width="1.5" stroke-linecap="round" stroke-linejoin="round"/>
<path d="M12.0921 20.4619C12.2482 21.8392 13.4129 22.913 14.7982 22.9622C15.5008 22.9871 16.2224 23 17 23C17.7776 23 18.4992 22.9871 19.2018 22.9622C20.5871 22.913 21.7518 21.8392 21.9079 20.4619C21.9623 19.9819 22 19.4941 22 19C22 18.506 21.9623 18.0182 21.9079 17.5382C21.7518 16.1609 20.5871 15.087 19.2018 15.0378C18.4992 15.0129 17.7776 15 17 15C16.2224 15 15.5008 15.0129 14.7982 15.0378C13.4129 15.087 12.2482 16.1609 12.0921 17.5382C12.0377 18.0182 12 18.506 12 19C12 19.4941 12.0377 19.9819 12.0921 20.4619Z" fill="white" stroke="#284B7B" stroke-width="1.5"/>
<path d="M19.8 15V13.8C19.8 13.0574 19.505 12.3452 18.9798 11.8201C18.4547 11.295 17.7426 11 17 11C16.2573 11 15.5452 11.295 15.0201 11.8201C14.4949 12.3452 14.2 13.0574 14.2 13.8V15" stroke="#284B7B" stroke-width="1.5" stroke-linecap="round" stroke-linejoin="round"/>
<path d="M17 18.4401V19.4" stroke="#284B7B" stroke-width="1.5" stroke-linecap="round" stroke-linejoin="round"/>
</svg>
