<svg width="1em" height="1em" viewBox="0 0 24 24" fill="none" xmlns="http://www.w3.org/2000/svg">
<g clip-path="url(#clip0_233_22164)">
<path d="M11.9994 22.7147C17.9168 22.7147 22.7137 17.9178 22.7137 12.0004C22.7137 6.08308 17.9168 1.28613 11.9994 1.28613C6.0821 1.28613 1.28516 6.08308 1.28516 12.0004C1.28516 17.9178 6.0821 22.7147 11.9994 22.7147Z" fill="#F4F7FB"/>
<path d="M11.9994 22.7147C17.9168 22.7147 22.7137 17.9178 22.7137 12.0004C22.7137 6.08308 17.9168 1.28613 11.9994 1.28613C6.0821 1.28613 1.28516 6.08308 1.28516 12.0004C1.28516 17.9178 6.0821 22.7147 11.9994 22.7147Z" stroke="#284B7B" stroke-width="1.5" stroke-linecap="round" stroke-linejoin="round"/>
<path d="M12.0008 12.7788C12.0008 12.1598 12.5042 11.7802 13.3923 11.1867C14.2161 10.6363 14.6506 9.92225 14.4574 8.95053C14.2641 7.97879 13.4612 7.17588 12.4894 6.98258C10.9641 6.67917 9.49609 7.88388 9.49609 9.43912" stroke="#284B7B" stroke-width="1.5" stroke-linecap="round" stroke-linejoin="round"/>
<path d="M12 17.0642V16.6356" stroke="#284B7B" stroke-width="1.5" stroke-linecap="round" stroke-linejoin="round"/>
</g>
<defs>
<clipPath id="clip0_233_22164">
<rect width="24" height="24" fill="white"/>
</clipPath>
</defs>
</svg>
