<svg width="20" height="20" viewBox="0 0 20 20" fill="none" xmlns="http://www.w3.org/2000/svg">
<g clip-path="url(#clip0_1359_4704)">
<path d="M1.18898 16.8515C1.27533 17.6586 1.92447 18.3078 2.73117 18.3976C3.33035 18.4645 3.94557 18.5218 4.57281 18.5218C5.20005 18.5218 5.81527 18.4645 6.41447 18.3976C7.22115 18.3078 7.8703 17.6586 7.95664 16.8515C8.02038 16.2558 8.07421 15.6441 8.07421 15.0205C8.07421 14.3968 8.02038 13.7851 7.95664 13.1893C7.8703 12.3822 7.22115 11.7331 6.41447 11.6432C5.81527 11.5764 5.20005 11.519 4.57281 11.519C3.94557 11.519 3.33035 11.5764 2.73117 11.6432C1.92447 11.7331 1.27533 12.3822 1.18898 13.1893C1.12524 13.7851 1.07141 14.3968 1.07141 15.0205C1.07141 15.6441 1.12524 16.2558 1.18898 16.8515Z" fill="#E8EEF7" stroke="#284B7B" stroke-width="1.5"/>
<path d="M6.61611 6.81054C6.70246 7.61763 7.35159 8.26677 8.15829 8.35668C8.75748 8.42347 9.37269 8.48084 9.99994 8.48084C10.6272 8.48084 11.2424 8.42347 11.8416 8.35668C12.6483 8.26677 13.2974 7.61763 13.3838 6.81054C13.4475 6.21474 13.5013 5.60306 13.5013 4.97943C13.5013 4.35581 13.4475 3.74413 13.3838 3.14833C13.2974 2.34124 12.6483 1.6921 11.8416 1.60218C11.2424 1.5354 10.6272 1.47803 9.99994 1.47803C9.37269 1.47803 8.75748 1.5354 8.15829 1.60218C7.35159 1.6921 6.70246 2.34124 6.61611 3.14833C6.55236 3.74413 6.49854 4.35581 6.49854 4.97943C6.49854 5.60306 6.55236 6.21474 6.61611 6.81054Z" fill="#E8EEF7" stroke="#284B7B" stroke-width="1.5"/>
<path d="M12.0434 16.8515C12.1297 17.6586 12.7788 18.3078 13.5855 18.3976C14.1847 18.4645 14.7999 18.5218 15.4272 18.5218C16.0545 18.5218 16.6696 18.4645 17.2689 18.3976C18.0755 18.3078 18.7246 17.6586 18.811 16.8515C18.8748 16.2558 18.9286 15.6441 18.9286 15.0205C18.9286 14.3968 18.8748 13.7851 18.811 13.1893C18.7246 12.3822 18.0755 11.7331 17.2689 11.6432C16.6696 11.5764 16.0545 11.519 15.4272 11.519C14.7999 11.519 14.1847 11.5764 13.5855 11.6432C12.7788 11.7331 12.1297 12.3822 12.0434 13.1893C11.9796 13.7851 11.9258 14.3968 11.9258 15.0205C11.9258 15.6441 11.9796 16.2558 12.0434 16.8515Z" fill="#E8EEF7" stroke="#284B7B" stroke-width="1.5"/>
</g>
<defs>
<clipPath id="clip0_1359_4704">
<rect width="20" height="20" fill="white"/>
</clipPath>
</defs>
</svg>
