<svg width="21" height="20" viewBox="0 0 21 20" fill="none" xmlns="http://www.w3.org/2000/svg">
<g clip-path="url(#clip0_659_100644)">
<path d="M7.1596 1.42871C6.06464 1.42871 4.9871 1.49823 3.94398 1.60881C2.71043 1.73957 1.73604 2.71001 1.61134 3.9442C1.50653 4.9816 1.44531 6.0547 1.44531 7.143C1.44531 8.2313 1.50653 9.30438 1.61134 10.3418C1.73604 11.576 2.71043 12.5464 3.94398 12.6772C4.9871 12.7878 6.06464 12.8573 7.1596 12.8573C8.25455 12.8573 9.33211 12.7878 10.3752 12.6772C11.6088 12.5464 12.5832 11.576 12.7079 10.3418C12.8127 9.30438 12.8739 8.2313 12.8739 7.143C12.8739 6.0547 12.8127 4.9816 12.7079 3.9442C12.5832 2.71001 11.6088 1.73957 10.3752 1.60881C9.33211 1.49823 8.25457 1.42871 7.1596 1.42871Z" fill="white"/>
<path d="M12.8735 7.14258C11.7785 7.14258 10.701 7.21209 9.65785 7.32268C8.42429 7.45344 7.44991 8.42388 7.32521 9.65806C7.22039 10.6955 7.15918 11.7686 7.15918 12.8569C7.15918 13.9452 7.22039 15.0183 7.32521 16.0557C7.44991 17.2899 8.42429 18.2603 9.65785 18.391C10.701 18.5016 11.7785 18.5711 12.8735 18.5711C13.9684 18.5711 15.046 18.5016 16.089 18.391C17.3226 18.2603 18.297 17.2899 18.4218 16.0557C18.5266 15.0183 18.5878 13.9452 18.5878 12.8569C18.5878 11.7686 18.5266 10.6955 18.4218 9.65806C18.297 8.42388 17.3226 7.45344 16.089 7.32268C15.046 7.21209 13.9684 7.14258 12.8735 7.14258Z" fill="white"/>
<path d="M9.65785 7.32268C10.701 7.21211 11.7785 7.14258 12.8735 7.14258C12.8735 8.23088 12.8123 9.30396 12.7074 10.3414C12.5827 11.5756 11.6084 12.546 10.3748 12.6768C9.33168 12.7873 8.25414 12.8569 7.15918 12.8569C7.15918 11.7686 7.22039 10.6955 7.32521 9.65806C7.44991 8.42388 8.42429 7.45344 9.65785 7.32268Z" fill="#E8EEF7"/>
<path d="M9.65785 7.32268C10.701 7.21211 11.7785 7.14258 12.8735 7.14258C12.8735 8.23088 12.8123 9.30396 12.7074 10.3414C12.5827 11.5756 11.6084 12.546 10.3748 12.6768C9.33168 12.7873 8.25414 12.8569 7.15918 12.8569C7.15918 11.7686 7.22039 10.6955 7.32521 9.65806C7.44991 8.42388 8.42429 7.45344 9.65785 7.32268Z" stroke="#284B7B" stroke-width="1.5" stroke-linejoin="round"/>
<path d="M9.19658 18.3421C9.00048 18.319 8.8057 18.2945 8.61237 18.269C7.99518 18.1873 7.51025 17.7024 7.4286 17.0851C7.40301 16.8918 7.37858 16.6971 7.35547 16.501" stroke="#284B7B" stroke-width="1.5" stroke-linecap="round"/>
<path d="M11.9727 18.5576C12.2659 18.5673 12.5607 18.5723 12.8568 18.5723C13.1529 18.5723 13.4477 18.5673 13.741 18.5576" stroke="#284B7B" stroke-width="1.5" stroke-linecap="round"/>
<path d="M18.3579 16.501C18.3347 16.6971 18.3103 16.8918 18.2847 17.0851C18.2032 17.7024 17.7182 18.1873 17.101 18.269C16.9076 18.2945 16.7127 18.319 16.5166 18.3421" stroke="#284B7B" stroke-width="1.5" stroke-linecap="round"/>
<path d="M18.5732 13.7253C18.5828 13.4321 18.588 13.1373 18.588 12.8412C18.588 12.5451 18.5828 12.2502 18.5732 11.957" stroke="#284B7B" stroke-width="1.5" stroke-linecap="round"/>
<path d="M16.5166 7.33984C16.7126 7.36296 16.9075 7.3874 17.1007 7.41297C17.718 7.49463 18.2029 7.97956 18.2846 8.59674C18.3102 8.79007 18.3346 8.98486 18.3577 9.18096" stroke="#284B7B" stroke-width="1.5" stroke-linecap="round"/>
<path d="M3.51592 12.6605C3.31982 12.6373 3.12503 12.6129 2.9317 12.5873C2.31452 12.5057 1.82959 12.0207 1.74793 11.4036C1.72236 11.2102 1.69792 11.0154 1.6748 10.8193" stroke="#284B7B" stroke-width="1.5" stroke-linecap="round"/>
<path d="M1.46 6.27539C1.45039 6.5686 1.44531 6.86345 1.44531 7.15955C1.44531 7.45565 1.45039 7.75048 1.46 8.0437" stroke="#284B7B" stroke-width="1.5" stroke-linecap="round"/>
<path d="M3.51606 1.6582C3.31995 1.6813 3.12518 1.70575 2.93183 1.73133C2.31465 1.81299 1.8297 2.2979 1.74798 2.91509C1.72238 3.10842 1.69792 3.3032 1.6748 3.49932" stroke="#284B7B" stroke-width="1.5" stroke-linecap="round"/>
<path d="M8.06029 1.4434C7.76708 1.4338 7.47225 1.42871 7.17615 1.42871C6.88003 1.42871 6.58521 1.4338 6.29199 1.4434" stroke="#284B7B" stroke-width="1.5" stroke-linecap="round"/>
<path d="M10.8359 1.6582C11.0321 1.6813 11.2268 1.70575 11.4202 1.73133C12.0374 1.81299 12.5223 2.29792 12.6039 2.91509C12.6295 3.10843 12.654 3.3032 12.6771 3.49932" stroke="#284B7B" stroke-width="1.5" stroke-linecap="round"/>
</g>
<defs>
<clipPath id="clip0_659_100644">
<rect width="20" height="20" fill="white" transform="translate(0.0166016)"/>
</clipPath>
</defs>
</svg>
