<svg width="20" height="20" viewBox="0 0 20 20" fill="none" xmlns="http://www.w3.org/2000/svg">
<path d="M2.69661 15.1517C2.92893 17.2012 4.66211 18.7992 6.72348 18.8724C7.76914 18.9095 8.84284 18.9287 10 18.9287C11.1573 18.9287 12.2309 18.9095 13.2766 18.8724C15.338 18.7992 17.0712 17.2012 17.3034 15.1517C17.3844 14.4374 17.4406 13.7115 17.4406 12.9763C17.4406 12.2411 17.3844 11.5153 17.3034 10.8009C17.0712 8.75137 15.338 7.15335 13.2766 7.0802C12.2309 7.0431 11.1573 7.02393 10 7.02393C8.84284 7.02393 7.76914 7.0431 6.72348 7.0802C4.6621 7.15335 2.92893 8.75137 2.69661 10.8009C2.61563 11.5153 2.55957 12.2411 2.55957 12.9763C2.55957 13.7115 2.61563 14.4374 2.69661 15.1517Z" fill="#E8EEF7" stroke="#284B7B" stroke-width="1.5"/>
<path d="M14.1668 7.02368V5.23796C14.1668 4.13289 13.7279 3.07307 12.9464 2.29167C12.165 1.51027 11.1052 1.07129 10.0002 1.07129C8.8951 1.07129 7.8353 1.51027 7.0539 2.29167C6.27248 3.07307 5.8335 4.13289 5.8335 5.23796V7.02368" stroke="#284B7B" stroke-width="1.5" stroke-linecap="round" stroke-linejoin="round"/>
<path d="M10 12.1431V13.5716" stroke="#284B7B" stroke-width="1.5" stroke-linecap="round" stroke-linejoin="round"/>
</svg>
