<svg width="24" height="24" viewBox="0 0 24 24" fill="none" xmlns="http://www.w3.org/2000/svg">
<path d="M11.0588 1.45699C9.89861 1.34474 8.70362 1.28613 7.4831 1.28613C6.26256 1.28613 5.06756 1.34474 3.90739 1.45699C2.63072 1.5805 1.65408 2.87449 1.59641 4.45007C1.50735 6.8835 1.46045 9.4096 1.46045 12.0004C1.46045 14.5912 1.50735 17.1173 1.59641 19.5508C1.65408 21.1264 2.63072 22.4204 3.90739 22.5438C5.06756 22.6561 6.26256 22.7147 7.4831 22.7147C8.70362 22.7147 9.89861 22.6561 11.0588 22.5438C12.3354 22.4204 13.3121 21.1264 13.3697 19.5508C13.4015 18.6825 13.4279 17.8026 13.4488 16.912V7.08892C13.4279 6.19835 13.4015 5.3183 13.3697 4.45007C13.3121 2.87449 12.3354 1.5805 11.0588 1.45699Z" fill="#F4F7FB"/>
<path d="M13.3697 4.45007C13.3121 2.87449 12.3354 1.5805 11.0588 1.45699C9.89861 1.34474 8.70362 1.28613 7.4831 1.28613C6.26256 1.28613 5.06756 1.34474 3.90739 1.45699C2.63072 1.5805 1.65408 2.87449 1.59641 4.45007C1.50735 6.8835 1.46045 9.4096 1.46045 12.0004C1.46045 14.5912 1.50735 17.1173 1.59641 19.5508C1.65408 21.1264 2.63072 22.4204 3.90739 22.5438C5.06756 22.6561 6.26256 22.7147 7.4831 22.7147C8.70362 22.7147 9.89861 22.6561 11.0588 22.5438C12.3354 22.4204 13.3121 21.1264 13.3697 19.5508" fill="#F4F7FB"/>
<path d="M13.3697 4.45007C13.3121 2.87449 12.3354 1.5805 11.0588 1.45699C9.89861 1.34474 8.70362 1.28613 7.4831 1.28613C6.26256 1.28613 5.06756 1.34474 3.90739 1.45699C2.63072 1.5805 1.65408 2.87449 1.59641 4.45007C1.50735 6.8835 1.46045 9.4096 1.46045 12.0004C1.46045 14.5912 1.50735 17.1173 1.59641 19.5508C1.65408 21.1264 2.63072 22.4204 3.90739 22.5438C5.06756 22.6561 6.26256 22.7147 7.4831 22.7147C8.70362 22.7147 9.89861 22.6561 11.0588 22.5438C12.3354 22.4204 13.3121 21.1264 13.3697 19.5508" stroke="#284B7B" stroke-width="1.71429" stroke-linecap="round"/>
<path d="M17.1895 17.0768C19.3489 15.3074 20.4281 14.2285 22.1115 12.1546C20.4281 10.0807 19.3489 9.0018 17.1895 7.23242" fill="#F4F7FB"/>
<path d="M17.1895 17.0768C19.3489 15.3074 20.4281 14.2285 22.1115 12.1546C20.4281 10.0807 19.3489 9.0018 17.1895 7.23242" stroke="#284B7B" stroke-width="1.71429" stroke-linecap="round" stroke-linejoin="round"/>
<path d="M6.86377 12.1553H22.0569H6.86377Z" fill="#F4F7FB"/>
<path d="M6.86377 12.1553H22.0569" stroke="#284B7B" stroke-width="1.71429" stroke-linecap="round" stroke-linejoin="round"/>
</svg>
