<svg width="20" height="20" viewBox="0 0 20 20" fill="none" xmlns="http://www.w3.org/2000/svg">
<path d="M2.08167 14.694C2.16105 15.313 2.44671 15.8872 2.89254 16.3239C3.33838 16.7606 3.91837 17.0343 4.53888 17.1008C6.30218 17.2866 8.12784 17.4803 9.99993 17.4803C11.8707 17.4803 13.6977 17.2853 15.461 17.1008C16.0817 17.0348 16.6619 16.7612 17.1078 16.3244C17.5537 15.8877 17.8393 15.3132 17.9182 14.694C18.1066 13.1762 18.2923 11.6079 18.2923 10.0012C18.2923 8.39579 18.1066 6.8262 17.9182 5.30836C17.8391 4.68912 17.5535 4.11462 17.1077 3.67767C16.6618 3.24072 16.0817 2.96683 15.461 2.90024C13.6977 2.71715 11.8707 2.52344 9.99993 2.52344C8.12916 2.52344 6.30218 2.71847 4.53888 2.9029C3.9182 2.96897 3.33796 3.24252 2.89203 3.67929C2.44611 4.11606 2.1606 4.69051 2.08167 5.30969C1.89327 6.8262 1.70752 8.39579 1.70752 10.0012C1.70752 11.6066 1.89327 13.1762 2.08167 14.694Z" fill="#E8EEF7"/>
<path d="M2.08167 14.694C2.16105 15.313 2.44671 15.8872 2.89254 16.3239C3.33838 16.7606 3.91837 17.0343 4.53888 17.1008C6.30218 17.2866 8.12784 17.4803 9.99993 17.4803C11.8707 17.4803 13.6977 17.2853 15.461 17.1008C16.0817 17.0348 16.6619 16.7612 17.1078 16.3244C17.5537 15.8877 17.8393 15.3132 17.9182 14.694C18.1066 13.1762 18.2923 11.6079 18.2923 10.0012C18.2923 8.39579 18.1066 6.8262 17.9182 5.30836C17.8391 4.68912 17.5535 4.11462 17.1077 3.67767C16.6618 3.24072 16.0817 2.96683 15.461 2.90024C13.6977 2.71715 11.8707 2.52344 9.99993 2.52344C8.12916 2.52344 6.30218 2.71847 4.53888 2.9029C3.9182 2.96897 3.33796 3.24252 2.89203 3.67929C2.44611 4.11606 2.1606 4.69051 2.08167 5.30969C1.89327 6.8262 1.70752 8.39579 1.70752 10.0012C1.70752 11.6066 1.89327 13.1762 2.08167 14.694Z" stroke="#284B7B" stroke-width="1.25" stroke-linecap="round" stroke-linejoin="round"/>
<path d="M2.11865 4.96484L8.3572 9.88456C8.82524 10.2534 9.40383 10.454 9.99976 10.454C10.5957 10.454 11.1743 10.2534 11.6423 9.88456L17.8809 4.96484" stroke="#284B7B" stroke-width="1.25" stroke-linecap="round" stroke-linejoin="round"/>
</svg>
