<svg width="24" height="24" viewBox="0 0 24 24" fill="none" xmlns="http://www.w3.org/2000/svg">
<path d="M7.95271 7.75034C11.8649 7.75034 14.0656 6.66386 14.0656 4.73232C14.0656 2.80078 11.8649 1.71429 7.95271 1.71429C4.04047 1.71429 1.83984 2.80078 1.83984 4.73232C1.83984 6.66386 4.04047 7.75034 7.95271 7.75034Z" fill="white"/>
<path fill-rule="evenodd" clip-rule="evenodd" d="M11.1662 7.42457C10.2809 7.6391 9.20438 7.75034 7.95264 7.75034C7.15361 7.75034 6.42598 7.70501 5.77392 7.61642C3.32662 7.28395 1.94371 6.34207 1.84541 4.89951C1.76931 6.05162 1.71423 7.44922 1.71423 8.56829C1.71423 10.2097 1.83271 11.8162 1.96224 13.3749C2.09861 15.016 3.36782 16.3818 4.9982 16.6133C5.36943 16.6661 5.74399 16.7147 6.12158 16.7547C6.72459 16.8184 7.33536 16.8599 7.95266 16.8599C8.58348 16.8599 9.20746 16.8166 9.82335 16.7504C9.76675 15.8445 9.72864 14.9249 9.72864 13.9942C9.72864 12.8752 9.7837 11.4776 9.8598 10.3256C9.85604 10.2705 9.85416 10.2147 9.85416 10.1582C9.85416 9.28226 10.3067 8.58014 11.1662 8.07428V7.42457Z" fill="#E8EEF7"/>
<path fill-rule="evenodd" clip-rule="evenodd" d="M22.0591 10.4764C21.8266 12.2086 19.6589 13.1762 15.967 13.1762C12.1693 13.1762 9.98443 12.1524 9.8598 10.3256C9.7837 11.4776 9.72864 12.8752 9.72864 13.9942C9.72864 15.6356 9.84711 17.2419 9.97664 18.8007C10.113 20.4418 11.3822 21.8076 13.0126 22.0392C13.9767 22.1762 14.9632 22.2857 15.9671 22.2857C16.9709 22.2857 17.9575 22.1762 18.9216 22.0392C20.5519 21.8076 21.8211 20.4418 21.9574 18.8007C22.087 17.2419 22.2055 15.6356 22.2055 13.9942C22.2055 12.8015 22.1429 11.6272 22.0591 10.4764Z" fill="#E8EEF7"/>
<path d="M1.87699 4.45166C1.78502 5.67278 1.71423 7.29955 1.71423 8.56831C1.71423 10.2097 1.83271 11.8162 1.96224 13.3749C2.09861 15.016 3.3678 16.3818 4.9982 16.6134C5.30355 16.6567 5.61115 16.6973 5.92083 16.7326" stroke="#284B7B" stroke-width="1.5" stroke-linecap="round" stroke-linejoin="round"/>
<path d="M5.43413 12.3476C3.47042 12.1965 1.89204 11.0055 1.71423 9.55635" stroke="#284B7B" stroke-width="1.5" stroke-linecap="round"/>
<path d="M5.77399 7.61644C3.23337 7.27128 1.83984 6.26935 1.83984 4.73232C1.83984 2.80078 4.04047 1.71429 7.95271 1.71429C10.9313 1.71429 12.9177 2.34408 13.6962 3.49711" stroke="#284B7B" stroke-width="1.5" stroke-linecap="round" stroke-linejoin="round"/>
<path d="M22.0714 9.87053C22.1772 11.212 22.2055 12.5939 22.2055 13.9942C22.2055 15.6355 22.087 17.2419 21.9574 18.8007C21.8211 20.4418 20.5519 21.8076 18.9216 22.0392C17.9575 22.1762 16.9709 22.2857 15.9671 22.2857C14.9632 22.2857 13.9767 22.1762 13.0126 22.0392C11.3822 21.8076 10.113 20.4418 9.97664 18.8007C9.84711 17.2419 9.72864 15.6355 9.72864 13.9942C9.72864 12.7254 9.77851 11.0916 9.87048 9.87053" stroke="#284B7B" stroke-width="1.5" stroke-linecap="round" stroke-linejoin="round"/>
<path d="M22.2055 14.9822C22.0277 16.4314 20.4494 17.6223 18.4856 17.7734C17.6602 17.837 16.8198 17.8829 15.9671 17.8829C15.1144 17.8829 14.2739 17.837 13.4485 17.7734C11.4848 17.6223 9.90644 16.4314 9.72864 14.9822" stroke="#284B7B" stroke-width="1.5" stroke-linecap="round"/>
<path d="M15.9671 13.1762C19.8794 13.1762 22.08 12.0897 22.08 10.1582C22.08 8.22663 19.8794 7.14014 15.9671 7.14014C12.0549 7.14014 9.85425 8.22663 9.85425 10.1582C9.85425 12.0897 12.0549 13.1762 15.9671 13.1762Z" fill="white"/>
<path d="M15.9671 13.1762C19.8794 13.1762 22.08 12.0897 22.08 10.1582C22.08 8.22663 19.8794 7.14014 15.9671 7.14014C12.0549 7.14014 9.85425 8.22663 9.85425 10.1582C9.85425 12.0897 12.0549 13.1762 15.9671 13.1762Z" stroke="#284B7B" stroke-width="1.5" stroke-linecap="round" stroke-linejoin="round"/>
</svg>
