<svg width="24" height="24" viewBox="0 0 24 24" fill="none"
     xmlns="http://www.w3.org/2000/svg" overflow="visible">
  <!-- Original three dots -->
  <path d="M12 13C12.5523 13 13 12.5523 13 12C13 11.4477 12.5523 11 12 11C11.4477 11 11 11.4477 11 12C11 12.5523 11.4477 13 12 13Z" stroke="currentColor" stroke-width="2" stroke-linecap="round" stroke-linejoin="round"/>
  <path d="M19 13C19.5523 13 20 12.5523 20 12C20 11.4477 19.5523 11 19 11C18.4477 11 18 11.4477 18 12C18 12.5523 18.4477 13 19 13Z" stroke="currentColor" stroke-width="2" stroke-linecap="round" stroke-linejoin="round"/>
  <path d="M5 13C5.55228 13 6 12.5523 6 12C6 11.4477 5.55228 11 5 11C4.44772 11 4 11.4477 4 12C4 12.5523 4.44772 13 5 13Z" stroke="currentColor" stroke-width="2" stroke-linecap="round" stroke-linejoin="round"/>

  <!-- Warning icon, scaled up and repositioned -->
  <g transform="translate(21, -7) scale(0.75)">
    <g clip-path="url(#clip0)">
      <path d="M12.0001 22.7143C17.9174 22.7143 22.7143 17.9174 22.7143 12C22.7143 6.08265 17.9174 1.28571 12.0001 1.28571C6.08272 1.28571 1.28577 6.08265 1.28577 12C1.28577 17.9174 6.08272 22.7143 12.0001 22.7143Z" fill="#F4F7FB" stroke="#ebae34" stroke-width="1" stroke-linecap="round" stroke-linejoin="round"/>
      <path d="M12 8V12.2857" stroke="#ebae34" stroke-width="1" stroke-linecap="round" stroke-linejoin="round"/>
      <path d="M12 16.1429V16.5714" stroke="#ebae34" stroke-width="1" stroke-linecap="round" stroke-linejoin="round"/>
    </g>
    <defs>
      <clipPath id="clip0">
        <rect width="24" height="24" fill="white"/>
      </clipPath>
    </defs>
  </g>
</svg>
