<svg width="24" height="24" viewBox="0 0 24 24" fill="none" xmlns="http://www.w3.org/2000/svg">
<path d="M16.1092 12.0149C18.3804 12.0149 20.2215 10.1737 20.2215 7.90252C20.2215 5.63134 18.3804 3.79018 16.1092 3.79018C13.838 3.79018 11.9968 5.63134 11.9968 7.90252C11.9968 10.1737 13.838 12.0149 16.1092 12.0149Z" fill="#E8EEF7"/>
<path d="M16.1093 12.0151C18.3805 12.0151 20.2216 10.1739 20.2216 7.90273C20.2216 6.14582 19.1198 4.64625 17.5696 4.05721" stroke="#284B7B" stroke-width="1.5" stroke-linecap="round" stroke-linejoin="round"/>
<path d="M21.7262 17.7919C23.7377 19.1316 22.3795 21.7155 19.9625 21.7155H10.8865C8.46957 21.7155 7.11125 19.1316 9.12281 17.7919C10.9271 16.5902 13.094 15.8898 15.4245 15.8898C17.755 15.8898 19.9219 16.5902 21.7262 17.7919Z" fill="#E8EEF7"/>
<path d="M9.18945 11.1998C11.6514 11.1998 13.6472 9.20401 13.6472 6.74208C13.6472 4.28012 11.6514 2.28432 9.18945 2.28432C6.7275 2.28432 4.73169 4.28012 4.73169 6.74208C4.73169 9.20401 6.7275 11.1998 9.18945 11.1998Z" fill="#E8EEF7" stroke="#284B7B" stroke-width="1.5" stroke-linecap="round" stroke-linejoin="round"/>
<path d="M16.0174 17.4627C18.1979 18.9151 16.7255 21.7161 14.1057 21.7161H4.26725C1.64738 21.7161 0.174992 18.9151 2.3555 17.4627C4.31138 16.1601 6.66026 15.401 9.18646 15.401C11.7127 15.401 14.0616 16.1601 16.0174 17.4627Z" fill="#E8EEF7" stroke="#284B7B" stroke-width="1.5"/>
<path d="M13.7267 21.7159H19.9625C22.3794 21.7159 23.7377 19.1319 21.7261 17.7921C21.1707 17.4221 20.5808 17.0997 19.9625 16.8306" stroke="#284B7B" stroke-width="1.5" stroke-linecap="round"/>
</svg>
