<svg width="180" height="180" viewBox="0 0 180 180" fill="none" xmlns="http://www.w3.org/2000/svg">
<g clip-path="url(#clip0_428_59971)">
<path d="M0 90C0 113.869 9.48211 136.761 26.3604 153.64C43.2387 170.518 66.1305 180 90 180C113.869 180 136.761 170.518 153.64 153.64C170.518 136.761 180 113.869 180 90C180 66.1305 170.518 43.2387 153.64 26.3604C136.761 9.48211 113.869 0 90 0C66.1305 0 43.2387 9.48211 26.3604 26.3604C9.48211 43.2387 0 66.1305 0 90Z" fill="#E8EEF7"/>
<path d="M31 166.486C31 167.076 32.4788 167.66 35.352 168.205C38.2252 168.751 42.4365 169.246 47.7454 169.663C53.0544 170.08 59.357 170.411 66.2935 170.637C73.23 170.863 80.6645 170.979 88.1725 170.979C95.6805 170.979 103.115 170.863 110.051 170.637C116.988 170.411 123.291 170.08 128.6 169.663C133.909 169.246 138.12 168.751 140.993 168.205C143.866 167.66 145.345 167.076 145.345 166.486C145.345 165.896 143.866 165.312 140.993 164.767C138.12 164.221 133.909 163.726 128.6 163.309C123.291 162.892 116.988 162.561 110.051 162.335C103.115 162.109 95.6805 161.993 88.1725 161.993C80.6645 161.993 73.23 162.109 66.2935 162.335C59.357 162.561 53.0544 162.892 47.7454 163.309C42.4365 163.726 38.2252 164.221 35.352 164.767C32.4788 165.312 31 165.896 31 166.486Z" fill="#90AED5"/>
<path d="M19.2625 98.5601C12.922 95.6836 10.1139 88.2117 12.9904 81.8711L44.9181 11.495C47.7946 5.15444 55.2665 2.3463 61.607 5.22282L144.329 42.7515C150.67 45.6281 153.478 53.1 150.601 59.4405L118.674 129.817C115.797 136.157 108.325 138.965 101.985 136.089L19.2625 98.5601Z" fill="#D9E3F2" stroke="#1F3B61" stroke-width="2" stroke-linecap="round" stroke-linejoin="round"/>
<path d="M145.468 43.2677L60.4745 4.7058C59.1168 4.08875 57.6508 3.74541 56.1603 3.6954C54.6699 3.6454 53.1841 3.88971 51.7882 4.41438C50.3922 4.93904 49.1134 5.73376 48.0248 6.75308C46.9362 7.7724 46.0592 8.99632 45.4441 10.3548L38.9747 24.6102L144.65 72.5536L151.117 58.2981C151.734 56.9404 152.077 55.4745 152.127 53.984C152.177 52.4935 151.933 51.0078 151.408 49.6118C150.884 48.2159 150.089 46.937 149.07 45.8484C148.05 44.7599 146.826 43.8829 145.468 43.2677Z" fill="white" stroke="#1F3B61" stroke-width="2" stroke-linecap="round" stroke-linejoin="round"/>
<path d="M54.4184 18.9408C54.3268 20.4434 54.836 21.9207 55.8337 23.0479C56.8315 24.1751 58.2361 24.8598 59.7387 24.9513C61.2412 25.0428 62.7186 24.5337 63.8458 23.5359C64.973 22.5382 65.6576 21.1335 65.7491 19.631C65.8406 18.1284 65.3315 16.651 64.3338 15.5239C63.336 14.3967 61.9314 13.712 60.4288 13.6205C58.9263 13.529 57.4489 14.0381 56.3217 15.0359C55.1945 16.0336 54.5099 17.4383 54.4184 18.9408Z" fill="#90AED5" stroke="#1F3B61" stroke-width="2" stroke-linejoin="round"/>
<path d="M75.1005 28.3223C75.009 29.8249 75.5181 31.3022 76.5159 32.4294C77.5136 33.5566 78.9183 34.2412 80.4208 34.3327C81.9234 34.4243 83.4007 33.9151 84.5279 32.9174C85.6551 31.9196 86.3397 30.515 86.4313 29.0124C86.5228 27.5099 86.0137 26.0325 85.0159 24.9053C84.0182 23.7782 82.6135 23.0935 81.1109 23.002C79.6084 22.9105 78.131 23.4196 77.0038 24.4173C75.8767 25.4151 75.192 26.8197 75.1005 28.3223Z" fill="#90AED5" stroke="#1F3B61" stroke-width="2" stroke-linejoin="round"/>
<path d="M95.7799 37.7036C95.6884 39.2062 96.1975 40.6836 97.1953 41.8107C98.193 42.9379 99.5977 43.6226 101.1 43.7141C102.603 43.8056 104.08 43.2965 105.207 42.2987C106.335 41.301 107.019 39.8963 107.111 38.3938C107.202 36.8912 106.693 35.4139 105.695 34.2867C104.698 33.1595 103.293 32.4749 101.79 32.3833C100.288 32.2918 98.8105 32.8009 97.6833 33.7987C96.5561 34.7964 95.8715 36.2011 95.7799 37.7036Z" fill="#90AED5" stroke="#1F3B61" stroke-width="2" stroke-linejoin="round"/>
<path d="M82.1042 80.4549C80.8361 79.8796 80.2745 78.3852 80.8498 77.1171L88.0326 61.2845C88.6079 60.0164 90.1022 59.4548 91.3703 60.0301L127.628 76.479C128.896 77.0543 129.457 78.5487 128.882 79.8168L121.699 95.6493C121.124 96.9174 119.63 97.4791 118.361 96.9038L82.1042 80.4549Z" fill="white" stroke="#1F3B61" stroke-width="2" stroke-linecap="round" stroke-linejoin="round"/>
<path d="M106.409 75.0623L118.079 80.3568" stroke="#1F3B61" stroke-width="2" stroke-linecap="round" stroke-linejoin="round"/>
<path d="M96.2246 79.1451L114.99 87.1652" stroke="#1F3B61" stroke-width="2" stroke-linecap="round" stroke-linejoin="round"/>
<path d="M26.9341 84.451C25.6659 83.8756 25.1043 82.3813 25.6796 81.1132L43.7097 41.3706C44.285 40.1025 45.7794 39.5409 47.0475 40.1162L76.4982 53.4772C77.7663 54.0525 78.328 55.5469 77.7527 56.815L59.7226 96.5575C59.1473 97.8256 57.6529 98.3872 56.3848 97.8119L26.9341 84.451Z" fill="white" stroke="#1F3B61" stroke-width="2" stroke-linecap="round" stroke-linejoin="round"/>
<path d="M68.6334 148.267C60.7741 148.267 53.2368 145.145 47.6794 139.587C42.1221 134.03 39 126.493 39 118.633C39 110.774 42.1221 103.237 47.6794 97.6794C53.2368 92.1221 60.7741 89 68.6334 89H117.719C125.579 89 133.116 92.1221 138.673 97.6794C144.231 103.237 147.353 110.774 147.353 118.633C147.353 126.493 144.231 134.03 138.673 139.587C133.116 145.145 125.579 148.267 117.719 148.267H68.6334Z" fill="#DAE3F1"/>
<path d="M68.6334 148.267C60.7741 148.267 53.2368 145.145 47.6794 139.587C42.1221 134.03 39 126.493 39 118.633C39 110.774 42.1221 103.237 47.6794 97.6794C53.2368 92.1221 60.7741 89 68.6334 89H117.719C125.579 89 133.116 92.1221 138.673 97.6794C144.231 103.237 147.353 110.774 147.353 118.633C147.353 126.493 144.231 134.03 138.673 139.587C133.116 145.145 125.579 148.267 117.719 148.267H68.6334Z" stroke="#1F3B61" stroke-width="2" stroke-linecap="round" stroke-linejoin="round"/>
<path d="M40.0862 118.633C40.0862 126.493 43.2083 134.03 48.7656 139.587C54.3229 145.145 61.8603 148.267 69.7196 148.267C77.5788 148.267 85.1162 145.145 90.6736 139.587C96.2309 134.03 99.353 126.493 99.353 118.633C99.353 110.774 96.2309 103.237 90.6736 97.6794C85.1162 92.1221 77.5788 89 69.7196 89C61.8603 89 54.3229 92.1221 48.7656 97.6794C43.2083 103.237 40.0862 110.774 40.0862 118.633Z" fill="white"/>
<path d="M62.7943 130.671L68.7921 124.674L74.7925 130.674C75.5934 131.443 76.6638 131.867 77.774 131.856C78.8842 131.844 79.9457 131.398 80.7308 130.613C81.5159 129.828 81.9619 128.767 81.9733 127.656C81.9846 126.546 81.5604 125.476 80.7915 124.675L74.7912 118.675L80.7941 112.672C81.5629 111.871 81.9872 110.8 81.9758 109.69C81.9644 108.58 81.5184 107.518 80.7333 106.733C79.9482 105.948 78.8867 105.502 77.7765 105.491C76.6663 105.479 75.5959 105.904 74.795 106.673L68.7946 112.673L62.7943 106.673C62.4034 106.265 61.9351 105.94 61.417 105.716C60.8989 105.492 60.3412 105.374 59.7768 105.368C59.2123 105.362 58.6524 105.469 58.1297 105.683C57.6071 105.896 57.1323 106.211 56.7332 106.611C56.334 107.01 56.0185 107.485 55.8052 108.007C55.5918 108.53 55.4849 109.09 55.4907 109.654C55.4965 110.219 55.6148 110.776 55.8388 111.294C56.0628 111.813 56.388 112.281 56.7952 112.672L62.7955 118.672L56.7952 124.672C56.388 125.063 56.0628 125.531 55.8388 126.05C55.6148 126.568 55.4965 127.125 55.4907 127.69C55.4849 128.254 55.5918 128.814 55.8052 129.337C56.0185 129.859 56.334 130.334 56.7332 130.733C57.1323 131.133 57.6071 131.448 58.1297 131.661C58.6524 131.875 59.2123 131.982 59.7768 131.976C60.3412 131.97 60.8989 131.852 61.417 131.628C61.9351 131.404 62.4034 131.079 62.7943 130.671Z" fill="#90AED5" stroke="#1F3B61" stroke-width="1.8" stroke-linejoin="round"/>
<path d="M39.0862 118.633C39.0862 126.493 42.2083 134.03 47.7656 139.587C53.3229 145.145 60.8603 148.267 68.7196 148.267C76.5788 148.267 84.1162 145.145 89.6736 139.587C95.2309 134.03 98.353 126.493 98.353 118.633C98.353 110.774 95.2309 103.237 89.6736 97.6794C84.1162 92.1221 76.5788 89 68.7196 89C60.8603 89 53.3229 92.1221 47.7656 97.6794C42.2083 103.237 39.0862 110.774 39.0862 118.633V118.633Z" stroke="#1F3B61" stroke-width="2" stroke-linecap="round" stroke-linejoin="round"/>
</g>
<defs>
<clipPath id="clip0_428_59971">
<rect width="180" height="180" fill="white"/>
</clipPath>
</defs>
</svg>
