<svg width="20" height="20" viewBox="0 0 20 20" fill="none" xmlns="http://www.w3.org/2000/svg">
<g clip-path="url(#clip0_1185_3433)">
<path d="M9.99972 6.78557C11.8283 6.78557 12.8569 5.757 12.8569 3.92843C12.8569 2.09986 11.8283 1.07129 9.99972 1.07129C8.17115 1.07129 7.14258 2.09986 7.14258 3.92843C7.14258 5.757 8.17115 6.78557 9.99972 6.78557Z" fill="#E8EEF7" stroke="#284B7B" stroke-width="1.5" stroke-linecap="round" stroke-linejoin="round"/>
<path d="M3.21415 18.9288C4.58557 18.9288 5.357 18.1574 5.357 16.7859C5.357 15.4145 4.58557 14.6431 3.21415 14.6431C1.84272 14.6431 1.07129 15.4145 1.07129 16.7859C1.07129 18.1574 1.84272 18.9288 3.21415 18.9288Z" fill="#E8EEF7" stroke="#284B7B" stroke-width="1.5" stroke-linecap="round" stroke-linejoin="round"/>
<path d="M10.0003 18.9288C11.3717 18.9288 12.1431 18.1574 12.1431 16.7859C12.1431 15.4145 11.3717 14.6431 10.0003 14.6431C8.62885 14.6431 7.85742 15.4145 7.85742 16.7859C7.85742 18.1574 8.62885 18.9288 10.0003 18.9288Z" fill="#E8EEF7" stroke="#284B7B" stroke-width="1.5" stroke-linecap="round" stroke-linejoin="round"/>
<path d="M16.7854 18.9288C18.1569 18.9288 18.9283 18.1574 18.9283 16.7859C18.9283 15.4145 18.1569 14.6431 16.7854 14.6431C15.414 14.6431 14.6426 15.4145 14.6426 16.7859C14.6426 18.1574 15.414 18.9288 16.7854 18.9288Z" fill="#E8EEF7" stroke="#284B7B" stroke-width="1.5" stroke-linecap="round" stroke-linejoin="round"/>
<path d="M2.85742 14.6426V13.2141C2.85742 11.6361 4.13661 10.3569 5.71456 10.3569H14.286C15.864 10.3569 17.1431 11.6361 17.1431 13.2141V14.6426" stroke="#284B7B" stroke-width="1.5"/>
<path d="M10 6.78564V14.6428" stroke="#284B7B" stroke-width="1.5"/>
</g>
<defs>
<clipPath id="clip0_1185_3433">
<rect width="20" height="20" fill="white"/>
</clipPath>
</defs>
</svg>
