<svg width="25" height="25" viewBox="0 0 25 25" fill="none" xmlns="http://www.w3.org/2000/svg">
<path d="M9.15472 20.3881L4.01416 21.3133L4.87091 16.1042L16.4029 4.60647C16.5623 4.44586 16.7517 4.31838 16.9605 4.23139C17.1693 4.1444 17.3934 4.09961 17.6195 4.09961C17.8458 4.09961 18.0697 4.1444 18.2785 4.23139C18.4873 4.31838 18.6769 4.44586 18.8361 4.60647L20.6524 6.42279C20.813 6.5821 20.9406 6.77162 21.0275 6.98042C21.1146 7.18923 21.1593 7.41319 21.1593 7.6394C21.1593 7.8656 21.1146 8.08958 21.0275 8.29838C20.9406 8.50719 20.813 8.69671 20.6524 8.856L9.15472 20.3881Z" fill="#E8EEF7"/>
<path d="M9.15472 20.5892L4.01416 21.5144L4.87091 16.3054L16.4029 4.80764C16.5623 4.64703 16.7517 4.51956 16.9605 4.43256C17.1693 4.34557 17.3934 4.30078 17.6195 4.30078C17.8458 4.30078 18.0697 4.34557 18.2785 4.43256C18.4873 4.51956 18.6769 4.64703 18.8361 4.80764L20.6524 6.62396C20.813 6.78327 20.9406 6.97279 21.0275 7.18159C21.1146 7.3904 21.1593 7.61436 21.1593 7.84058C21.1593 8.06678 21.1146 8.29075 21.0275 8.49955C20.9406 8.70836 20.813 8.89788 20.6524 9.05717L9.15472 20.5892Z" stroke="#284B7B" stroke-width="1.5" stroke-linecap="round" stroke-linejoin="round"/>
</svg>
