<svg width="24" height="24" viewBox="0 0 24 24" fill="none" xmlns="http://www.w3.org/2000/svg">
<path d="M2.64437 5.81413C3.49427 4.61297 4.66994 3.39458 5.592 2.70708C6.05399 2.36259 6.67448 2.36259 7.13647 2.70708C8.05853 3.39458 9.25784 4.52026 10.0841 5.81413C10.5552 6.55195 10.1405 7.45649 9.28284 7.6319C8.50527 7.79092 7.50311 7.92189 6.36423 7.92189C5.22536 7.92189 4.2232 7.79092 3.44563 7.6319C2.58796 7.45649 2.17322 6.55195 2.64437 5.81413Z" fill="#E8EEF7"/>
<path d="M13.9161 18.1891C14.766 19.3904 15.9417 20.6087 16.8637 21.2962C17.3257 21.6407 17.9462 21.6407 18.4082 21.2962C19.3302 20.6087 20.5296 19.4831 21.3558 18.1891C21.827 17.4513 21.4123 16.5468 20.5546 16.3714C19.777 16.2124 18.7749 16.0814 17.636 16.0814C16.4971 16.0814 15.4949 16.2124 14.7174 16.3714C13.8597 16.5468 13.4449 17.4513 13.9161 18.1891Z" fill="#E8EEF7"/>
<path d="M6.36414 7.9217V21.5541" stroke="#284B7B" stroke-width="1.5" stroke-linecap="round" stroke-linejoin="round"/>
<path d="M2.64437 5.81413C3.49427 4.61297 4.66994 3.39458 5.592 2.70708C6.05399 2.36259 6.67448 2.36259 7.13647 2.70708C8.05853 3.39458 9.25784 4.52026 10.0841 5.81413C10.5552 6.55195 10.1405 7.45649 9.28284 7.6319C8.50527 7.79092 7.50311 7.92189 6.36423 7.92189C5.22536 7.92189 4.2232 7.79092 3.44563 7.6319C2.58796 7.45649 2.17322 6.55195 2.64437 5.81413Z" stroke="#284B7B" stroke-width="1.5" stroke-linecap="round" stroke-linejoin="round"/>
<path d="M17.6359 16.0814V2.44891" stroke="#284B7B" stroke-width="1.5" stroke-linecap="round" stroke-linejoin="round"/>
<path d="M13.9161 18.1891C14.766 19.3904 15.9417 20.6087 16.8637 21.2962C17.3257 21.6407 17.9462 21.6407 18.4082 21.2962C19.3302 20.6087 20.5296 19.4831 21.3558 18.1891C21.827 17.4513 21.4123 16.5468 20.5546 16.3714C19.777 16.2124 18.7749 16.0814 17.636 16.0814C16.4971 16.0814 15.4949 16.2124 14.7174 16.3714C13.8597 16.5468 13.4449 17.4513 13.9161 18.1891Z" stroke="#284B7B" stroke-width="1.5" stroke-linecap="round" stroke-linejoin="round"/>
</svg>
