<svg width="21" height="20" viewBox="0 0 21 20" fill="none" xmlns="http://www.w3.org/2000/svg">
<g clip-path="url(#clip0_659_100734)">
<path d="M4.49983 13.0543C6.18678 13.0543 7.55434 11.6868 7.55434 9.99983C7.55434 8.31286 6.18678 6.94531 4.49983 6.94531C2.81287 6.94531 1.44531 8.31286 1.44531 9.99983C1.44531 11.6868 2.81287 13.0543 4.49983 13.0543Z" fill="#E8EEF7" stroke="#284B7B" stroke-width="1.5" stroke-linecap="round" stroke-linejoin="round"/>
<path d="M15.1034 7.18032C16.7904 7.18032 18.1578 5.81276 18.1578 4.1258C18.1578 2.43885 16.7904 1.07129 15.1034 1.07129C13.4164 1.07129 12.0488 2.43885 12.0488 4.1258C12.0488 5.81276 13.4164 7.18032 15.1034 7.18032Z" fill="#E8EEF7" stroke="#284B7B" stroke-width="1.5" stroke-linecap="round" stroke-linejoin="round"/>
<path d="M15.1033 18.9284C16.7903 18.9284 18.1579 17.5609 18.1579 15.8739C18.1579 14.1869 16.7903 12.8193 15.1033 12.8193C13.4164 12.8193 12.0488 14.1869 12.0488 15.8739C12.0488 17.5609 13.4164 18.9284 15.1033 18.9284Z" fill="#E8EEF7" stroke="#284B7B" stroke-width="1.5" stroke-linecap="round" stroke-linejoin="round"/>
<path d="M5.91602 7.32653C8.70526 5.75336 8.87452 5.74011 12.0488 4.84473" stroke="#284B7B" stroke-width="1.5" stroke-linecap="round" stroke-linejoin="round"/>
<path d="M5.91602 12.6738C8.70526 14.247 8.87452 14.2602 12.0488 15.1556" stroke="#284B7B" stroke-width="1.5" stroke-linecap="round" stroke-linejoin="round"/>
</g>
<defs>
<clipPath id="clip0_659_100734">
<rect width="20" height="20" fill="white" transform="translate(0.0166016)"/>
</clipPath>
</defs>
</svg>
