<svg width="20" height="20" viewBox="0 0 20 20" fill="none" xmlns="http://www.w3.org/2000/svg">
<path d="M1.44831 11.4163C1.53874 12.0988 2.09136 12.6329 2.77673 12.6977C4.428 12.8537 6.15196 13.0504 7.92501 13.0504C9.69807 13.0504 11.422 12.8537 13.0733 12.6977C13.7587 12.6329 14.3113 12.0988 14.4017 11.4163C14.5774 10.0909 14.7787 8.71083 14.7787 7.29328C14.7787 5.87572 14.5774 4.49565 14.4017 3.17025C14.3113 2.48778 13.7587 1.9536 13.0733 1.88885C11.422 1.73283 9.69807 1.53613 7.92501 1.53613C6.15196 1.53613 4.428 1.73283 2.77673 1.88885C2.09136 1.9536 1.53874 2.48778 1.44831 3.17025C1.27267 4.49565 1.07129 5.87572 1.07129 7.29328C1.07129 8.71083 1.27267 10.0909 1.44831 11.4163Z" fill="#E8EEF7" stroke="#284B7B" stroke-width="1.5"/>
<path d="M5.59772 16.0593C5.68816 16.7419 6.24076 17.2761 6.92615 17.3408C8.57742 17.4968 10.3014 17.6935 12.0744 17.6935C13.8475 17.6935 15.5714 17.4968 17.2227 17.3408C17.9081 17.2761 18.4607 16.7419 18.5511 16.0593C18.7268 14.7339 18.9281 13.3539 18.9281 11.9363C18.9281 10.5188 18.7268 9.13871 18.5511 7.81331C18.4607 7.13084 17.9081 6.59667 17.2227 6.53191C15.5714 6.3759 13.8475 6.1792 12.0744 6.1792C10.3014 6.1792 8.57742 6.3759 6.92615 6.53191C6.24076 6.59667 5.68816 7.13084 5.59772 7.81331C5.42207 9.13871 5.2207 10.5188 5.2207 11.9363C5.2207 13.3539 5.42207 14.7339 5.59772 16.0593Z" fill="white"/>
<path d="M5.59772 16.0593C5.68816 16.7419 6.24076 17.2761 6.92615 17.3408C8.57742 17.4968 10.3014 17.6935 12.0744 17.6935C13.8475 17.6935 15.5714 17.4968 17.2227 17.3408C17.9081 17.2761 18.4607 16.7419 18.5511 16.0593C18.7268 14.7339 18.9281 13.3539 18.9281 11.9363C18.9281 10.5188 18.7268 9.13871 18.5511 7.81331C18.4607 7.13084 17.9081 6.59667 17.2227 6.53191C15.5714 6.3759 13.8475 6.1792 12.0744 6.1792C10.3014 6.1792 8.57742 6.3759 6.92615 6.53191C6.24076 6.59667 5.68816 7.13084 5.59772 7.81331C5.42207 9.13871 5.2207 10.5188 5.2207 11.9363C5.2207 13.3539 5.42207 14.7339 5.59772 16.0593Z" stroke="#284B7B" stroke-width="1.5"/>
</svg>
