<svg width="180" height="180" viewBox="0 0 180 180" fill="none" xmlns="http://www.w3.org/2000/svg">
<g clip-path="url(#clip0_325_21644)">
<path d="M0 90C0 113.869 9.48211 136.761 26.3604 153.64C43.2387 170.518 66.1305 180 90 180C113.869 180 136.761 170.518 153.64 153.64C170.518 136.761 180 113.869 180 90C180 66.1305 170.518 43.2387 153.64 26.3604C136.761 9.48211 113.869 0 90 0C66.1305 0 43.2387 9.48211 26.3604 26.3604C9.48211 43.2387 0 66.1305 0 90Z" fill="#E8EEF7"/>
<path d="M45.7289 47.1285C46.1094 47.8475 46.6644 48.4593 47.343 48.9079C48.0215 49.3565 48.8019 49.6274 49.6124 49.6958C58.2468 50.0725 66.7573 47.5367 73.7774 42.4958C74.3042 42.123 74.7512 41.6489 75.0925 41.1012C75.4337 40.5535 75.6622 39.9432 75.7647 39.3061C75.8671 38.669 75.8414 38.0179 75.6891 37.3908C75.5368 36.7637 75.2608 36.1734 74.8775 35.6543C74.4942 35.1352 74.0111 34.6978 73.4566 34.3677C72.9022 34.0376 72.2874 33.8215 71.6483 33.7319C71.0093 33.6424 70.3588 33.6812 69.7349 33.8462C69.1111 34.0112 68.5264 34.299 68.0152 34.6928C62.8971 38.3544 56.7142 40.2255 50.4247 40.0163C49.5569 39.9437 48.6856 40.1059 47.9022 40.486C47.1187 40.866 46.4519 41.4498 45.9717 42.1762C45.4915 42.9026 45.2155 43.7449 45.1728 44.6146C45.1301 45.4843 45.3222 46.3495 45.7289 47.1195V47.1285Z" fill="white" stroke="#1F3B61" stroke-width="2" stroke-linecap="round" stroke-linejoin="round"/>
<path d="M49.4684 56.1285C49.8486 56.8477 50.4035 57.4598 51.0821 57.9084C51.7607 58.357 52.5413 58.6278 53.3519 58.6958C61.9863 59.0721 70.4966 56.5364 77.5169 51.4958C78.5351 50.7252 79.2085 49.5844 79.3909 48.3206C79.5733 47.0568 79.2501 45.7721 78.4914 44.7451C77.7327 43.7181 76.5997 43.0316 75.3381 42.8346C74.0765 42.6376 72.7881 42.9459 71.7524 43.6927C66.6354 47.3546 60.4531 49.2259 54.1642 49.0162C53.2964 48.9437 52.4251 49.1059 51.6417 49.486C50.8582 49.866 50.1914 50.4498 49.7112 51.1762C49.231 51.9026 48.955 52.7449 48.9123 53.6146C48.8696 54.4843 49.0617 55.3495 49.4684 56.1195V56.1285Z" fill="white" stroke="#1F3B61" stroke-width="2" stroke-linecap="round" stroke-linejoin="round"/>
<path d="M52.7894 64.6627C53.1696 65.382 53.7245 65.9941 54.4031 66.4427C55.0817 66.8913 55.8623 67.162 56.6729 67.23C65.3059 67.6096 73.8162 65.0779 80.8379 60.0413C81.873 59.2768 82.5619 58.1325 82.7533 56.8601C82.9447 55.5877 82.6227 54.2914 81.8583 53.2564C81.0939 52.2213 79.9496 51.5323 78.6772 51.341C77.4048 51.1496 76.1085 51.4716 75.0734 52.236C69.9561 55.8976 63.7741 57.7695 57.4852 57.5617C56.6175 57.4887 55.7461 57.6505 54.9626 58.0302C54.179 58.4099 53.512 58.9936 53.0317 59.7199C52.5515 60.4462 52.2755 61.2884 52.2329 62.1581C52.1902 63.0278 52.3825 63.8929 52.7894 64.6627Z" fill="white" stroke="#1F3B61" stroke-width="2" stroke-linecap="round" stroke-linejoin="round"/>
<path d="M17.2417 4.21649C23.4809 4.25474 79.4542 4.27499 92.2094 32.868C94.2234 36.9666 95.4 41.4257 95.6704 45.9844C95.9408 50.5431 95.2997 55.11 93.7844 59.418L91.7325 64.6875C91.3085 65.7854 90.4991 66.6913 89.4557 67.2358C88.4122 67.7803 87.2062 67.9262 86.0631 67.646C84.92 67.3659 83.918 66.679 83.2446 65.7138C82.5711 64.7485 82.2723 63.5711 82.404 62.4015C82.629 60.2865 84.7282 56.8642 85.7002 52.5015C87.6667 40.0657 80.046 27.9405 66.0555 30.0397C65.8162 30.1243 65.5984 30.2602 65.4172 30.4379C65.2361 30.6155 65.096 30.8307 65.0068 31.0682C64.9176 31.3058 64.8815 31.56 64.9009 31.813C64.9204 32.066 64.995 32.3116 65.1195 32.5327C66.9266 35.8333 69.3217 38.7759 72.1867 41.2155L85.7002 52.5015C84.8421 55.4796 83.8228 58.4089 82.6469 61.2765C81.598 61.1326 80.5892 60.7775 79.6815 60.2325C63.225 50.976 58.4257 48.15 46.6649 40.9882C39.6629 36.2182 39.051 29.2612 25.1527 30.663L17.5275 31.2862L17.2417 4.21649Z" fill="white"/>
<path d="M17.2417 4.21649C23.4809 4.25474 79.4542 4.27499 92.2094 32.868C94.2234 36.9666 95.4 41.4257 95.6704 45.9844C95.9408 50.5431 95.2997 55.11 93.7844 59.418L91.7325 64.6875C91.3085 65.7854 90.4991 66.6913 89.4557 67.2358C88.4122 67.7803 87.2062 67.9262 86.0631 67.646C84.92 67.3659 83.918 66.679 83.2446 65.7138C82.5711 64.7485 82.2723 63.5711 82.404 62.4015C82.629 60.2865 84.7282 56.8642 85.7002 52.5015C87.6667 40.0657 80.046 27.9405 66.0555 30.0397C65.8162 30.1243 65.5984 30.2602 65.4172 30.4379C65.2361 30.6155 65.096 30.8307 65.0068 31.0682C64.9176 31.3058 64.8815 31.56 64.9009 31.813C64.9204 32.066 64.995 32.3116 65.1195 32.5327C66.9266 35.8333 69.3217 38.7759 72.1867 41.2155L85.7002 52.5015C84.8421 55.4796 83.8228 58.4089 82.6469 61.2765C81.598 61.1326 80.5892 60.7775 79.6815 60.2325C63.225 50.976 58.4257 48.15 46.6649 40.9882C39.6629 36.2182 39.051 29.2612 25.1527 30.663L17.5275 31.2862" stroke="#1F3B61" stroke-width="2" stroke-linecap="round" stroke-linejoin="round"/>
<path d="M85.7001 52.506L72.1866 41.22C69.3217 38.7804 66.9266 35.8378 65.1194 32.5372C64.9949 32.3161 64.9203 32.0705 64.9009 31.8175C64.8814 31.5645 64.9176 31.3103 65.0067 31.0727C65.0959 30.8352 65.236 30.62 65.4172 30.4424C65.5983 30.2647 65.8162 30.1288 66.0554 30.0442C80.0459 27.945 87.6666 40.0702 85.7001 52.506Z" fill="white" stroke="#1F3B61" stroke-width="2" stroke-linecap="round" stroke-linejoin="round"/>
<path d="M37.9082 171.486C37.9082 172.076 39.387 172.66 42.2602 173.205C45.1334 173.751 49.3447 174.246 54.6536 174.663C59.9626 175.08 66.2653 175.411 73.2017 175.637C80.1382 175.863 87.5727 175.979 95.0807 175.979C102.589 175.979 110.023 175.863 116.96 175.637C123.896 175.411 130.199 175.08 135.508 174.663C140.817 174.246 145.028 173.751 147.901 173.205C150.774 172.66 152.253 172.076 152.253 171.486C152.253 170.896 150.774 170.312 147.901 169.767C145.028 169.221 140.817 168.726 135.508 168.309C130.199 167.892 123.896 167.561 116.96 167.335C110.023 167.109 102.589 166.993 95.0807 166.993C87.5727 166.993 80.1382 167.109 73.2017 167.335C66.2653 167.561 59.9626 167.892 54.6536 168.309C49.3447 168.726 45.1334 169.221 42.2602 169.767C39.387 170.312 37.9082 170.896 37.9082 171.486Z" fill="#90AED5"/>
<path d="M141.363 86.5215L139.252 78.075C139.112 77.5115 138.786 77.0113 138.329 76.6537C137.871 76.2962 137.307 76.1019 136.726 76.1017H114.75C114.169 76.1019 113.605 76.2962 113.147 76.6537C112.689 77.0113 112.364 77.5115 112.223 78.075L110.113 86.5215H42.3877C42.0455 86.5212 41.7065 86.5884 41.3903 86.7192C41.074 86.85 40.7867 87.042 40.5447 87.284C40.3027 87.526 40.1108 87.8133 39.98 88.1296C39.8491 88.4458 39.7819 88.7847 39.7822 89.127V164.662C39.7819 165.347 39.9167 166.025 40.1789 166.658C40.4411 167.291 40.8255 167.866 41.3101 168.35C41.7947 168.835 42.3701 169.218 43.0032 169.48C43.6364 169.742 44.3149 169.876 45 169.875H143.977C145.358 169.872 146.68 169.321 147.655 168.344C148.629 167.366 149.176 166.042 149.175 164.662V89.127C149.175 88.7849 149.108 88.4462 148.977 88.1301C148.847 87.814 148.655 87.5267 148.413 87.2848C148.172 87.0428 147.884 86.8508 147.568 86.7199C147.252 86.5889 146.914 86.5215 146.572 86.5215H141.363Z" fill="#90AED5" stroke="#1F3B61" stroke-width="2" stroke-linecap="round" stroke-linejoin="round"/>
<path d="M49.1928 111.79C44.1634 109.508 41.9359 103.582 44.2176 98.5521L69.5435 42.7279C71.8252 37.6985 77.7521 35.471 82.7815 37.7527L148.399 67.5214C153.428 69.8032 155.656 75.7301 153.374 80.7595L128.048 136.584C125.767 141.613 119.84 143.841 114.81 141.559L49.1928 111.79Z" fill="#D9E3F2" stroke="#1F3B61" stroke-width="2" stroke-linecap="round" stroke-linejoin="round"/>
<path d="M149.302 67.9309L81.8831 37.3426C80.8061 36.8531 79.6433 36.5808 78.461 36.5411C77.2787 36.5014 76.1002 36.6952 74.9929 37.1114C73.8856 37.5276 72.8712 38.158 72.0077 38.9665C71.1442 39.7751 70.4486 40.7459 69.9606 41.8235L64.8289 53.1312L148.653 91.1612L153.783 79.8534C154.272 78.7764 154.545 77.6136 154.584 76.4313C154.624 75.249 154.43 74.0705 154.014 72.9632C153.598 71.8559 152.967 70.8414 152.159 69.978C151.35 69.1145 150.38 68.4189 149.302 67.9309Z" fill="white" stroke="#1F3B61" stroke-width="2" stroke-linecap="round" stroke-linejoin="round"/>
<path d="M77.0791 48.6342C77.0065 49.826 77.4103 50.9979 78.2018 51.892C78.9932 52.7861 80.1074 53.3292 81.2993 53.4018C82.4911 53.4744 83.663 53.0706 84.5571 52.2791C85.4512 51.4877 85.9943 50.3735 86.0669 49.1816C86.1395 47.9897 85.7357 46.8179 84.9442 45.9238C84.1528 45.0297 83.0386 44.4866 81.8467 44.414C80.6549 44.3414 79.483 44.7452 78.5889 45.5367C77.6948 46.3281 77.1517 47.4423 77.0791 48.6342Z" fill="#90AED5" stroke="#1F3B61" stroke-width="2" stroke-linejoin="round"/>
<path d="M93.4848 56.0758C93.4122 57.2677 93.8161 58.4395 94.6075 59.3337C95.399 60.2278 96.5132 60.7708 97.705 60.8434C98.8969 60.916 100.069 60.5122 100.963 59.7207C101.857 58.9293 102.4 57.8151 102.473 56.6232C102.545 55.4314 102.141 54.2595 101.35 53.3654C100.559 52.4713 99.4443 51.9282 98.2525 51.8556C97.0606 51.783 95.8887 52.1868 94.9946 52.9783C94.1005 53.7697 93.5574 54.8839 93.4848 56.0758Z" fill="#90AED5" stroke="#1F3B61" stroke-width="2" stroke-linejoin="round"/>
<path d="M109.888 63.5173C109.816 64.7092 110.219 65.8811 111.011 66.7752C111.802 67.6693 112.916 68.2124 114.108 68.285C115.3 68.3576 116.472 67.9537 117.366 67.1623C118.26 66.3708 118.803 65.2566 118.876 64.0648C118.949 62.8729 118.545 61.701 117.753 60.8069C116.962 59.9128 115.848 59.3697 114.656 59.2971C113.464 59.2245 112.292 59.6284 111.398 60.4198C110.504 61.2113 109.961 62.3255 109.888 63.5173Z" fill="#90AED5" stroke="#1F3B61" stroke-width="2" stroke-linejoin="round"/>
<path d="M99.0403 97.4287C98.0344 96.9723 97.5889 95.7869 98.0453 94.7811L103.743 82.2223C104.199 81.2164 105.385 80.7709 106.39 81.2272L135.151 94.2749C136.157 94.7313 136.602 95.9167 136.146 96.9226L130.448 109.481C129.992 110.487 128.806 110.933 127.801 110.476L99.0403 97.4287Z" fill="white" stroke="#1F3B61" stroke-width="2" stroke-linecap="round" stroke-linejoin="round"/>
<path d="M118.32 93.1511L127.577 97.3509" stroke="#1F3B61" stroke-width="2" stroke-linecap="round" stroke-linejoin="round"/>
<path d="M110.241 96.3897L125.126 102.751" stroke="#1F3B61" stroke-width="2" stroke-linecap="round" stroke-linejoin="round"/>
<path d="M55.2779 100.598C54.272 100.142 53.8265 98.9567 54.2828 97.9509L68.5847 66.4261C69.0411 65.4202 70.2264 64.9747 71.2323 65.431L94.5934 76.0293C95.5993 76.4856 96.0448 77.671 95.5885 78.6769L81.2866 110.202C80.8302 111.208 79.6449 111.653 78.639 111.197L55.2779 100.598Z" fill="white" stroke="#1F3B61" stroke-width="2" stroke-linecap="round" stroke-linejoin="round"/>
<path d="M144.765 169.875H44.1899C42.9569 169.875 41.764 169.437 40.8234 168.64C39.8828 167.843 39.2556 166.738 39.0532 165.521L29.8642 110.396C29.8021 110.023 29.822 109.641 29.9226 109.276C30.0231 108.912 30.2018 108.573 30.4464 108.285C30.6909 107.996 30.9953 107.764 31.3385 107.605C31.6817 107.446 32.0554 107.363 32.4337 107.363H156.521C156.9 107.363 157.273 107.445 157.617 107.604C157.96 107.763 158.265 107.995 158.509 108.284C158.754 108.572 158.933 108.911 159.033 109.276C159.133 109.641 159.153 110.023 159.091 110.396L149.904 165.521C149.701 166.738 149.074 167.843 148.133 168.64C147.192 169.438 145.998 169.875 144.765 169.875Z" fill="white" stroke="#1F3B61" stroke-width="2" stroke-linecap="round" stroke-linejoin="round"/>
<path d="M65.1195 32.5373C66.9267 35.8378 69.3218 38.7804 72.1868 41.22L85.7003 52.506C86.2591 53.0219 86.7363 53.6197 87.1155 54.279C87.4137 54.8429 87.5978 55.46 87.6574 56.095C87.717 56.7301 87.6509 57.3707 87.4628 57.9802C87.2748 58.5897 86.9685 59.1562 86.5614 59.6472C86.1544 60.1383 85.6546 60.5444 85.0905 60.8423C84.2111 61.2135 83.2513 61.3534 82.3025 61.2486C81.3537 61.1438 80.4475 60.7979 79.6703 60.2438C63.225 50.9783 58.4235 48.15 46.665 40.9883" fill="white"/>
<path d="M65.1195 32.5373C66.9267 35.8378 69.3218 38.7804 72.1868 41.22L85.7003 52.506C86.2591 53.0219 86.7363 53.6197 87.1155 54.279C87.4137 54.8429 87.5978 55.46 87.6574 56.095C87.717 56.7301 87.6509 57.3707 87.4628 57.9802C87.2748 58.5897 86.9685 59.1562 86.5614 59.6472C86.1544 60.1383 85.6546 60.5444 85.0905 60.8423C84.2111 61.2135 83.2513 61.3534 82.3025 61.2486C81.3537 61.1438 80.4475 60.7979 79.6703 60.2438C63.225 50.9783 58.4235 48.15 46.665 40.9883" stroke="#1F3B61" stroke-width="2" stroke-linecap="round" stroke-linejoin="round"/>
</g>
<defs>
<clipPath id="clip0_325_21644">
<rect width="180" height="180" fill="white"/>
</clipPath>
</defs>
</svg>
