<svg width="25" height="25" viewBox="0 0 25 25" fill="none" xmlns="http://www.w3.org/2000/svg">
<path d="M2.30225 6.91992H21.7308" stroke="#DC4747" stroke-width="1.5" stroke-linecap="round"/>
<path d="M19.715 6.91992H4.31106C4.0624 11.4157 4.06627 15.8768 4.7364 20.3444C4.98381 21.9937 6.40063 23.2138 8.06844 23.2138H15.9576C17.6255 23.2138 19.0422 21.9937 19.2897 20.3444C19.9598 15.8768 19.9636 11.4157 19.715 6.91992Z" fill="white"/>
<path d="M19.715 6.91992H4.31106C4.0624 11.4157 4.06627 15.8768 4.7364 20.3443C4.98381 21.9936 6.40063 23.2138 8.06844 23.2138H15.9576C17.6255 23.2138 19.0422 21.9936 19.2897 20.3443C19.9598 15.8768 19.9636 11.4157 19.715 6.91992Z" stroke="#DC4747" stroke-width="1.5" stroke-linecap="round" stroke-linejoin="round"/>
<path d="M7.73438 6.92022V4.06445C7.73438 2.95988 8.62981 2.06445 9.73438 2.06445H14.2921C15.3967 2.06445 16.2921 2.95988 16.2921 4.06445V6.06445V6.92022" stroke="#DC4747" stroke-width="1.5" stroke-linecap="round" stroke-linejoin="round"/>
<path d="M9.4458 11.5039V18.5974" stroke="#DC4747" stroke-width="1.5" stroke-linecap="round" stroke-linejoin="round"/>
<path d="M14.5806 11.5039V18.5974" stroke="#DC4747" stroke-width="1.5" stroke-linecap="round" stroke-linejoin="round"/>
</svg>
